<svg width="1440" height="1099" viewBox="0 0 1440 1099" fill="none" xmlns="http://www.w3.org/2000/svg">
<path d="M336.154 326.987C381.381 363.812 420.917 861 246.917 936C183.908 942.226 109.36 633.717 25.4199 609.118C-44.5543 592.54 186.521 326.41 273.119 326.744C309.654 281.872 290.926 290.163 336.154 326.987Z" fill="url(#paint0_linear_464_2)" fill-opacity="0.8"/>
<path d="M1075.08 486.662C1032.31 447.014 1040.57 80.4941 1166.67 15.393C1229.95 13.218 1321.07 195.099 1403.26 225.028C1472.03 246.057 1224.37 496.829 1137.97 490.945C1098.63 533.383 1117.86 526.309 1075.08 486.662Z" fill="url(#paint1_linear_464_2)" fill-opacity="0.8"/>
<path d="M528.256 626.993C572.454 588.939 993.23 662.828 1043.77 795.43C989.77 969.43 910.77 1015.93 773.269 1015.93C667.77 992.43 501.399 774.198 516.942 689.005C479.187 645.155 484.058 665.048 528.256 626.993Z" fill="url(#paint2_linear_464_2)" fill-opacity="0.8"/>
<defs>
<linearGradient id="paint0_linear_464_2" x1="57.8283" y1="354.141" x2="238.649" y2="501.366" gradientUnits="userSpaceOnUse">
<stop stop-color="#200AC2"/>
<stop offset="1" stop-color="#625F93"/>
</linearGradient>
<linearGradient id="paint1_linear_464_2" x1="1354.57" y1="477.403" x2="1183.56" y2="318.891" gradientUnits="userSpaceOnUse">
<stop stop-color="#200AC2"/>
<stop offset="1" stop-color="#625F93"/>
</linearGradient>
<linearGradient id="paint2_linear_464_2" x1="601" y1="993.871" x2="777.702" y2="841.728" gradientUnits="userSpaceOnUse">
<stop stop-color="#200AC2"/>
<stop offset="1" stop-color="#625F93"/>
</linearGradient>
</defs>
</svg>
