<svg width="1456" height="4168" viewBox="0 0 1456 4168" fill="none" xmlns="http://www.w3.org/2000/svg">
<rect y="563" width="295" height="295" fill="url(#paint0_linear_490_27)"/>
<rect x="295" y="943" width="211" height="210" fill="url(#paint1_linear_490_27)"/>
<rect x="28" y="1317" width="285" height="285" fill="url(#paint2_linear_490_27)"/>
<rect x="473" y="227" width="362" height="362" fill="url(#paint3_linear_490_27)"/>
<rect x="763" y="753" width="262" height="262" fill="url(#paint4_linear_490_27)"/>
<rect x="1182" y="1261" width="274" height="274" fill="url(#paint5_linear_490_27)"/>
<rect x="686" y="1120" width="339" height="339" fill="url(#paint6_linear_490_27)"/>
<rect x="255" y="1778" width="224" height="224" fill="url(#paint7_linear_490_27)"/>
<rect x="988" y="1759" width="244" height="243" fill="url(#paint8_linear_490_27)"/>
<rect x="1129" width="327" height="327" fill="url(#paint9_linear_490_27)"/>
<rect x="1219" y="695" width="199" height="199" fill="url(#paint10_linear_490_27)"/>
<rect x="180" y="33" width="194" height="194" fill="url(#paint11_linear_490_27)"/>
<rect y="2729" width="295" height="295" fill="url(#paint12_linear_490_27)"/>
<rect x="295" y="3109" width="211" height="210" fill="url(#paint13_linear_490_27)"/>
<rect x="28" y="3483" width="285" height="285" fill="url(#paint14_linear_490_27)"/>
<rect x="473" y="2393" width="362" height="362" fill="url(#paint15_linear_490_27)"/>
<rect x="763" y="2919" width="262" height="262" fill="url(#paint16_linear_490_27)"/>
<rect x="1182" y="3427" width="274" height="274" fill="url(#paint17_linear_490_27)"/>
<rect x="686" y="3286" width="339" height="339" fill="url(#paint18_linear_490_27)"/>
<rect x="255" y="3944" width="224" height="224" fill="url(#paint19_linear_490_27)"/>
<rect x="988" y="3925" width="244" height="243" fill="url(#paint20_linear_490_27)"/>
<rect x="1129" y="2166" width="327" height="327" fill="url(#paint21_linear_490_27)"/>
<rect x="1219" y="2861" width="199" height="199" fill="url(#paint22_linear_490_27)"/>
<rect x="180" y="2199" width="194" height="194" fill="url(#paint23_linear_490_27)"/>
<defs>
<linearGradient id="paint0_linear_490_27" x1="147.492" y1="569.804" x2="147.492" y2="872.998" gradientUnits="userSpaceOnUse">
<stop stop-color="#FAEA5E"/>
<stop offset="1" stop-color="#FA8334"/>
</linearGradient>
<linearGradient id="paint1_linear_490_27" x1="400.494" y1="947.844" x2="400.494" y2="1163.68" gradientUnits="userSpaceOnUse">
<stop stop-color="#FAEA5E"/>
<stop offset="1" stop-color="#FA8334"/>
</linearGradient>
<linearGradient id="paint2_linear_490_27" x1="170.492" y1="1323.57" x2="170.492" y2="1616.49" gradientUnits="userSpaceOnUse">
<stop stop-color="#FAEA5E"/>
<stop offset="1" stop-color="#FA8334"/>
</linearGradient>
<linearGradient id="paint3_linear_490_27" x1="653.99" y1="235.349" x2="653.99" y2="607.404" gradientUnits="userSpaceOnUse">
<stop stop-color="#FAEA5E"/>
<stop offset="1" stop-color="#FA8334"/>
</linearGradient>
<linearGradient id="paint4_linear_490_27" x1="893.993" y1="759.043" x2="893.993" y2="1028.32" gradientUnits="userSpaceOnUse">
<stop stop-color="#FAEA5E"/>
<stop offset="1" stop-color="#FA8334"/>
</linearGradient>
<linearGradient id="paint5_linear_490_27" x1="1318.99" y1="1267.32" x2="1318.99" y2="1548.93" gradientUnits="userSpaceOnUse">
<stop stop-color="#FAEA5E"/>
<stop offset="1" stop-color="#FA8334"/>
</linearGradient>
<linearGradient id="paint6_linear_490_27" x1="855.491" y1="1127.82" x2="855.491" y2="1476.23" gradientUnits="userSpaceOnUse">
<stop stop-color="#FAEA5E"/>
<stop offset="1" stop-color="#FA8334"/>
</linearGradient>
<linearGradient id="paint7_linear_490_27" x1="366.994" y1="1783.17" x2="366.994" y2="2013.39" gradientUnits="userSpaceOnUse">
<stop stop-color="#FAEA5E"/>
<stop offset="1" stop-color="#FA8334"/>
</linearGradient>
<linearGradient id="paint8_linear_490_27" x1="1109.99" y1="1764.6" x2="1109.99" y2="2014.35" gradientUnits="userSpaceOnUse">
<stop stop-color="#FAEA5E"/>
<stop offset="1" stop-color="#FA8334"/>
</linearGradient>
<linearGradient id="paint9_linear_490_27" x1="1292.49" y1="7.54202" x2="1292.49" y2="343.625" gradientUnits="userSpaceOnUse">
<stop stop-color="#FAEA5E"/>
<stop offset="1" stop-color="#FA8334"/>
</linearGradient>
<linearGradient id="paint10_linear_490_27" x1="1318.49" y1="699.59" x2="1318.49" y2="904.117" gradientUnits="userSpaceOnUse">
<stop stop-color="#FAEA5E"/>
<stop offset="1" stop-color="#FA8334"/>
</linearGradient>
<linearGradient id="paint11_linear_490_27" x1="276.995" y1="37.4745" x2="276.995" y2="236.863" gradientUnits="userSpaceOnUse">
<stop stop-color="#FAEA5E"/>
<stop offset="1" stop-color="#FA8334"/>
</linearGradient>
<linearGradient id="paint12_linear_490_27" x1="147.492" y1="2735.8" x2="147.492" y2="3039" gradientUnits="userSpaceOnUse">
<stop stop-color="#FAEA5E"/>
<stop offset="1" stop-color="#FA8334"/>
</linearGradient>
<linearGradient id="paint13_linear_490_27" x1="400.494" y1="3113.84" x2="400.494" y2="3329.68" gradientUnits="userSpaceOnUse">
<stop stop-color="#FAEA5E"/>
<stop offset="1" stop-color="#FA8334"/>
</linearGradient>
<linearGradient id="paint14_linear_490_27" x1="170.492" y1="3489.57" x2="170.492" y2="3782.49" gradientUnits="userSpaceOnUse">
<stop stop-color="#FAEA5E"/>
<stop offset="1" stop-color="#FA8334"/>
</linearGradient>
<linearGradient id="paint15_linear_490_27" x1="653.99" y1="2401.35" x2="653.99" y2="2773.4" gradientUnits="userSpaceOnUse">
<stop stop-color="#FAEA5E"/>
<stop offset="1" stop-color="#FA8334"/>
</linearGradient>
<linearGradient id="paint16_linear_490_27" x1="893.993" y1="2925.04" x2="893.993" y2="3194.32" gradientUnits="userSpaceOnUse">
<stop stop-color="#FAEA5E"/>
<stop offset="1" stop-color="#FA8334"/>
</linearGradient>
<linearGradient id="paint17_linear_490_27" x1="1318.99" y1="3433.32" x2="1318.99" y2="3714.93" gradientUnits="userSpaceOnUse">
<stop stop-color="#FAEA5E"/>
<stop offset="1" stop-color="#FA8334"/>
</linearGradient>
<linearGradient id="paint18_linear_490_27" x1="855.491" y1="3293.82" x2="855.491" y2="3642.23" gradientUnits="userSpaceOnUse">
<stop stop-color="#FAEA5E"/>
<stop offset="1" stop-color="#FA8334"/>
</linearGradient>
<linearGradient id="paint19_linear_490_27" x1="366.994" y1="3949.17" x2="366.994" y2="4179.39" gradientUnits="userSpaceOnUse">
<stop stop-color="#FAEA5E"/>
<stop offset="1" stop-color="#FA8334"/>
</linearGradient>
<linearGradient id="paint20_linear_490_27" x1="1109.99" y1="3930.6" x2="1109.99" y2="4180.35" gradientUnits="userSpaceOnUse">
<stop stop-color="#FAEA5E"/>
<stop offset="1" stop-color="#FA8334"/>
</linearGradient>
<linearGradient id="paint21_linear_490_27" x1="1292.49" y1="2173.54" x2="1292.49" y2="2509.62" gradientUnits="userSpaceOnUse">
<stop stop-color="#FAEA5E"/>
<stop offset="1" stop-color="#FA8334"/>
</linearGradient>
<linearGradient id="paint22_linear_490_27" x1="1318.49" y1="2865.59" x2="1318.49" y2="3070.12" gradientUnits="userSpaceOnUse">
<stop stop-color="#FAEA5E"/>
<stop offset="1" stop-color="#FA8334"/>
</linearGradient>
<linearGradient id="paint23_linear_490_27" x1="276.995" y1="2203.47" x2="276.995" y2="2402.86" gradientUnits="userSpaceOnUse">
<stop stop-color="#FAEA5E"/>
<stop offset="1" stop-color="#FA8334"/>
</linearGradient>
</defs>
</svg>
