<svg width="1505" height="1113" viewBox="0 0 1505 1113" fill="none" xmlns="http://www.w3.org/2000/svg">
<path d="M409.154 329.988C440.603 379.106 508 890.5 319.918 939.001C256.908 945.227 218 637.001 98.4202 612.119C28.446 595.541 302 356.501 346.12 329.745C380.5 299.501 405 323.501 409.154 329.988Z" fill="url(#paint0_linear_478_2)" fill-opacity="0.8"/>
<path d="M1148.08 489.663C1105.31 450.015 1113.57 83.4956 1239.67 18.3944C1306.5 -2.49885 1344.5 187.737 1476.26 228.029C1545.03 249.058 1225.5 497.001 1225.5 497.001C1225.5 497.001 1190.86 529.311 1148.08 489.663Z" fill="url(#paint1_linear_478_2)" fill-opacity="0.8"/>
<path d="M601.256 629.994C687 560.5 1066.23 665.828 1116.77 798.43C1132 933.5 983.77 1018.93 846.27 1018.93C740.77 995.431 555.957 782.193 571.5 697C571.5 656.5 601.256 629.994 601.256 629.994Z" fill="url(#paint2_linear_478_2)" fill-opacity="0.8"/>
<defs>
<linearGradient id="paint0_linear_478_2" x1="130.828" y1="357.142" x2="311.649" y2="504.367" gradientUnits="userSpaceOnUse">
<stop stop-color="#200AC2"/>
<stop offset="1" stop-color="#625F93"/>
</linearGradient>
<linearGradient id="paint1_linear_478_2" x1="1427.57" y1="480.413" x2="1256.56" y2="321.901" gradientUnits="userSpaceOnUse">
<stop stop-color="#200AC2"/>
<stop offset="1" stop-color="#625F93"/>
</linearGradient>
<linearGradient id="paint2_linear_478_2" x1="674" y1="996.871" x2="850.703" y2="844.728" gradientUnits="userSpaceOnUse">
<stop stop-color="#200AC2"/>
<stop offset="1" stop-color="#625F93"/>
</linearGradient>
</defs>
</svg>
