<svg width="1798" height="1623" viewBox="0 0 1798 1623" fill="none" xmlns="http://www.w3.org/2000/svg">
<path d="M1425.02 1609.15L1387.76 1591.52H1462.27L1425.02 1609.15Z" fill="#020C13"/>
<path d="M1425.02 1527.06L1462.27 1544.69H1387.76L1425.02 1527.06Z" fill="#020C13"/>
<rect x="1387.78" y="1544.66" width="74.4771" height="46.893" fill="#020C13"/>
<path d="M1464.39 1540.98L1427.14 1523.34H1501.65L1464.39 1540.98Z" fill="#020C13"/>
<path d="M1464.39 1458.88L1501.65 1476.52H1427.14L1464.39 1458.88Z" fill="#020C13"/>
<rect x="1427.15" y="1476.48" width="74.4771" height="46.893" fill="#020C13"/>
<path d="M1503.76 1609.15L1466.51 1591.52H1541.02L1503.76 1609.15Z" fill="#020C13"/>
<path d="M1503.76 1527.06L1541.02 1544.69H1466.51L1503.76 1527.06Z" fill="#020C13"/>
<rect x="1466.52" y="1544.66" width="74.4771" height="46.893" fill="#020C13"/>
<path d="M1503.76 1473.17L1466.51 1455.54H1541.02L1503.76 1473.17Z" fill="#020C13"/>
<path d="M1503.76 1391.07L1541.02 1408.71H1466.51L1503.76 1391.07Z" fill="#020C13"/>
<rect x="1466.52" y="1408.68" width="74.4771" height="46.893" fill="#020C13"/>
<path d="M1542.41 1540.98L1505.15 1523.34H1579.66L1542.41 1540.98Z" fill="#020C13"/>
<path d="M1542.41 1458.88L1579.66 1476.52H1505.15L1542.41 1458.88Z" fill="#020C13"/>
<rect x="1505.17" y="1476.48" width="74.4771" height="46.893" fill="#020C13"/>
<path d="M1582.14 1609.15L1544.89 1591.52H1619.4L1582.14 1609.15Z" fill="#020C13"/>
<path d="M1582.14 1527.06L1619.4 1544.69H1544.89L1582.14 1527.06Z" fill="#020C13"/>
<rect x="1544.9" y="1544.66" width="74.4771" height="46.893" fill="#020C13"/>
<path d="M1582.14 1472.08L1544.89 1454.44H1619.4L1582.14 1472.08Z" fill="#020C13"/>
<path d="M1582.14 1389.98L1619.4 1407.61H1544.89L1582.14 1389.98Z" fill="#020C13"/>
<rect x="1544.9" y="1407.58" width="74.4771" height="46.893" fill="#020C13"/>
<path d="M1621.52 1403.9L1584.26 1386.27H1658.77L1621.52 1403.9Z" fill="#020C13"/>
<path d="M1621.52 1321.81L1658.77 1339.44H1584.26L1621.52 1321.81Z" fill="#020C13"/>
<rect x="1584.28" y="1339.41" width="74.4771" height="46.893" fill="#020C13"/>
<path d="M1660.89 1472.08L1623.63 1454.44H1698.14L1660.89 1472.08Z" fill="#020C13"/>
<path d="M1660.89 1389.98L1698.14 1407.61H1623.63L1660.89 1389.98Z" fill="#020C13"/>
<rect x="1623.65" y="1407.58" width="74.4771" height="46.893" fill="#020C13"/>
<path d="M1660.89 1336.1L1623.63 1318.46H1698.14L1660.89 1336.1Z" fill="#020C13"/>
<path d="M1660.89 1254L1698.14 1271.63H1623.63L1660.89 1254Z" fill="#020C13"/>
<rect x="1623.65" y="1271.6" width="74.4771" height="46.893" fill="#020C13"/>
<path d="M1699.53 1403.9L1662.28 1386.27H1736.79L1699.53 1403.9Z" fill="#020C13"/>
<path d="M1699.53 1321.81L1736.79 1339.44H1662.28L1699.53 1321.81Z" fill="#020C13"/>
<rect x="1662.29" y="1339.41" width="74.4771" height="46.893" fill="#020C13"/>
<path d="M1739.27 1472.08L1702.01 1454.44H1776.52L1739.27 1472.08Z" fill="#020C13"/>
<path d="M1739.27 1389.98L1776.52 1407.61H1702.01L1739.27 1389.98Z" fill="#020C13"/>
<rect x="1702.03" y="1407.58" width="74.4771" height="46.893" fill="#020C13"/>
<path d="M1778.66 1458.93L1815.91 1476.58L1741.4 1476.56L1778.66 1458.93Z" fill="#020C13"/>
<path d="M1778.64 1541.03L1741.39 1523.38L1815.9 1523.4L1778.64 1541.03Z" fill="#020C13"/>
<rect x="1815.88" y="1523.44" width="74.4771" height="46.893" transform="rotate(-179.986 1815.88 1523.44)" fill="#020C13"/>
<path d="M1739.27 1527.1L1776.52 1544.74L1702.01 1544.72L1739.27 1527.1Z" fill="#020C13"/>
<path d="M1739.25 1609.19L1702 1591.55L1776.51 1591.57L1739.25 1609.19Z" fill="#020C13"/>
<rect x="1776.49" y="1591.6" width="74.4771" height="46.893" transform="rotate(-179.986 1776.49 1591.6)" fill="#020C13"/>
<path d="M1699.92 1458.91L1737.17 1476.56L1662.66 1476.54L1699.92 1458.91Z" fill="#F09DEB"/>
<path d="M1699.9 1541.01L1662.65 1523.36L1737.16 1523.38L1699.9 1541.01Z" fill="#F09DEB"/>
<rect x="1737.14" y="1523.42" width="74.4771" height="46.893" transform="rotate(-179.986 1737.14 1523.42)" fill="#F09DEB"/>
<path d="M1699.88 1594.89L1737.13 1612.54L1662.62 1612.52L1699.88 1594.89Z" fill="#020C13"/>
<rect x="1737.11" y="1659.4" width="74.4771" height="46.893" transform="rotate(-179.986 1737.11 1659.4)" fill="#020C13"/>
<path d="M1661.26 1527.08L1698.51 1544.72L1624 1544.7L1661.26 1527.08Z" fill="#020C13"/>
<path d="M1661.24 1609.17L1623.99 1591.53L1698.5 1591.55L1661.24 1609.17Z" fill="#020C13"/>
<rect x="1698.48" y="1591.58" width="74.4771" height="46.893" transform="rotate(-179.986 1698.48 1591.58)" fill="#020C13"/>
<path d="M1621.54 1458.89L1658.79 1476.54L1584.28 1476.52L1621.54 1458.89Z" fill="#020C13"/>
<path d="M1621.52 1540.99L1584.27 1523.35L1658.77 1523.36L1621.52 1540.99Z" fill="#020C13"/>
<rect x="1658.76" y="1523.4" width="74.4771" height="46.893" transform="rotate(-179.986 1658.76 1523.4)" fill="#020C13"/>
<path d="M1268.02 1336.15L1230.76 1318.52H1305.27L1268.02 1336.15Z" fill="#020C13"/>
<path d="M1268.02 1254.06L1305.27 1271.69H1230.76L1268.02 1254.06Z" fill="#020C13"/>
<rect x="1230.78" y="1271.66" width="74.4771" height="46.893" fill="#020C13"/>
<path d="M1307.39 1267.98L1270.14 1250.34H1344.65L1307.39 1267.98Z" fill="#020C13"/>
<path d="M1307.39 1185.88L1344.65 1203.52H1270.14L1307.39 1185.88Z" fill="#020C13"/>
<rect x="1270.15" y="1203.48" width="74.4771" height="46.893" fill="#020C13"/>
<path d="M1346.76 1336.15L1309.51 1318.52H1384.02L1346.76 1336.15Z" fill="#020C13"/>
<path d="M1346.76 1254.06L1384.02 1271.69H1309.51L1346.76 1254.06Z" fill="#020C13"/>
<rect x="1309.52" y="1271.66" width="74.4771" height="46.893" fill="#020C13"/>
<path d="M1346.76 1200.17L1309.51 1182.54H1384.02L1346.76 1200.17Z" fill="#020C13"/>
<path d="M1346.76 1118.07L1384.02 1135.71H1309.51L1346.76 1118.07Z" fill="#020C13"/>
<rect x="1309.52" y="1135.68" width="74.4771" height="46.893" fill="#020C13"/>
<path d="M1385.41 1267.98L1348.15 1250.34H1422.66L1385.41 1267.98Z" fill="#020C13"/>
<path d="M1385.41 1185.88L1422.66 1203.52H1348.15L1385.41 1185.88Z" fill="#020C13"/>
<rect x="1348.17" y="1203.48" width="74.4771" height="46.893" fill="#020C13"/>
<path d="M1425.14 1336.15L1387.89 1318.52H1462.4L1425.14 1336.15Z" fill="#020C13"/>
<path d="M1425.14 1254.06L1462.4 1271.69H1387.89L1425.14 1254.06Z" fill="#020C13"/>
<rect x="1387.9" y="1271.66" width="74.4771" height="46.893" fill="#020C13"/>
<path d="M1425.14 1199.08L1387.89 1181.44H1462.4L1425.14 1199.08Z" fill="#020C13"/>
<path d="M1425.14 1116.98L1462.4 1134.61H1387.89L1425.14 1116.98Z" fill="#020C13"/>
<rect x="1387.9" y="1134.58" width="74.4771" height="46.893" fill="#020C13"/>
<path d="M1464.52 1130.9L1427.26 1113.27H1501.77L1464.52 1130.9Z" fill="#020C13"/>
<path d="M1464.52 1048.81L1501.77 1066.44H1427.26L1464.52 1048.81Z" fill="#020C13"/>
<rect x="1427.28" y="1066.41" width="74.4771" height="46.893" fill="#020C13"/>
<path d="M1503.89 1199.08L1466.63 1181.44H1541.14L1503.89 1199.08Z" fill="#020C13"/>
<path d="M1503.89 1116.98L1541.14 1134.61H1466.63L1503.89 1116.98Z" fill="#020C13"/>
<rect x="1466.65" y="1134.58" width="74.4771" height="46.893" fill="#020C13"/>
<path d="M1503.89 1063.1L1466.63 1045.46H1541.14L1503.89 1063.1Z" fill="#020C13"/>
<path d="M1503.89 981L1541.14 998.634H1466.63L1503.89 981Z" fill="#020C13"/>
<rect x="1466.65" y="998.601" width="74.4771" height="46.893" fill="#020C13"/>
<path d="M1542.53 1130.9L1505.28 1113.27H1579.79L1542.53 1130.9Z" fill="#020C13"/>
<path d="M1542.53 1048.81L1579.79 1066.44H1505.28L1542.53 1048.81Z" fill="#020C13"/>
<rect x="1505.29" y="1066.41" width="74.4771" height="46.893" fill="#020C13"/>
<path d="M1582.27 1199.08L1545.01 1181.44H1619.52L1582.27 1199.08Z" fill="#020C13"/>
<path d="M1582.27 1116.98L1619.52 1134.61H1545.01L1582.27 1116.98Z" fill="#020C13"/>
<rect x="1545.03" y="1134.58" width="74.4771" height="46.893" fill="#020C13"/>
<path d="M1621.66 1185.93L1658.91 1203.58L1584.4 1203.56L1621.66 1185.93Z" fill="#020C13"/>
<path d="M1621.64 1268.03L1584.39 1250.38L1658.9 1250.4L1621.64 1268.03Z" fill="#020C13"/>
<rect x="1658.88" y="1250.44" width="74.4771" height="46.893" transform="rotate(-179.986 1658.88 1250.44)" fill="#020C13"/>
<path d="M1582.27 1254.1L1619.52 1271.74L1545.01 1271.72L1582.27 1254.1Z" fill="#020C13"/>
<path d="M1582.25 1336.19L1545 1318.55L1619.51 1318.57L1582.25 1336.19Z" fill="#020C13"/>
<rect x="1619.49" y="1318.6" width="74.4771" height="46.893" transform="rotate(-179.986 1619.49 1318.6)" fill="#020C13"/>
<path d="M1542.92 1185.91L1580.17 1203.56L1505.66 1203.54L1542.92 1185.91Z" fill="#020C13"/>
<path d="M1542.9 1268.01L1505.65 1250.36L1580.16 1250.38L1542.9 1268.01Z" fill="#020C13"/>
<rect x="1580.14" y="1250.42" width="74.4771" height="46.893" transform="rotate(-179.986 1580.14 1250.42)" fill="#020C13"/>
<path d="M1542.88 1321.89L1580.13 1339.54L1505.62 1339.52L1542.88 1321.89Z" fill="#020C13"/>
<path d="M1542.86 1403.99L1505.61 1386.35L1580.12 1386.36L1542.86 1403.99Z" fill="#020C13"/>
<rect x="1580.11" y="1386.4" width="74.4771" height="46.893" transform="rotate(-179.986 1580.11 1386.4)" fill="#020C13"/>
<path d="M1504.26 1254.08L1541.51 1271.72L1467 1271.7L1504.26 1254.08Z" fill="#020C13"/>
<path d="M1504.24 1336.17L1466.99 1318.53L1541.5 1318.55L1504.24 1336.17Z" fill="#020C13"/>
<rect x="1541.48" y="1318.58" width="74.4771" height="46.893" transform="rotate(-179.986 1541.48 1318.58)" fill="#020C13"/>
<path d="M1464.54 1185.89L1501.79 1203.54L1427.28 1203.52L1464.54 1185.89Z" fill="#F6F000"/>
<path d="M1464.52 1267.99L1427.27 1250.35L1501.77 1250.36L1464.52 1267.99Z" fill="#F6F000"/>
<rect x="1501.76" y="1250.4" width="74.4771" height="46.893" transform="rotate(-179.986 1501.76 1250.4)" fill="#F6F000"/>
<path d="M1464.02 995.151L1426.76 977.517H1501.27L1464.02 995.151Z" fill="#020C13"/>
<path d="M1464.02 913.055L1501.27 930.69H1426.76L1464.02 913.055Z" fill="#020C13"/>
<rect x="1426.78" y="930.657" width="74.4771" height="46.893" fill="#020C13"/>
<path d="M1503.39 926.978L1466.14 909.344H1540.65L1503.39 926.978Z" fill="#020C13"/>
<path d="M1503.39 844.883L1540.65 862.517H1466.14L1503.39 844.883Z" fill="#020C13"/>
<rect x="1466.15" y="862.484" width="74.4771" height="46.893" fill="#020C13"/>
<path d="M1542.76 995.151L1505.51 977.517H1580.02L1542.76 995.151Z" fill="#020C13"/>
<path d="M1542.76 913.055L1580.02 930.69H1505.51L1542.76 913.055Z" fill="#020C13"/>
<rect x="1505.52" y="930.657" width="74.4771" height="46.893" fill="#020C13"/>
<path d="M1542.76 859.17L1505.51 841.536H1580.02L1542.76 859.17Z" fill="#020C13"/>
<path d="M1542.76 777.074L1580.02 794.709H1505.51L1542.76 777.074Z" fill="#020C13"/>
<rect x="1505.52" y="794.676" width="74.4771" height="46.893" fill="#020C13"/>
<path d="M1581.41 926.978L1544.15 909.344H1618.66L1581.41 926.978Z" fill="#020C13"/>
<path d="M1581.41 844.883L1618.66 862.517H1544.15L1581.41 844.883Z" fill="#020C13"/>
<rect x="1544.17" y="862.484" width="74.4771" height="46.893" fill="#020C13"/>
<path d="M1621.14 995.151L1583.89 977.517H1658.4L1621.14 995.151Z" fill="#020C13"/>
<path d="M1621.14 913.055L1658.4 930.69H1583.89L1621.14 913.055Z" fill="#020C13"/>
<rect x="1583.9" y="930.657" width="74.4771" height="46.893" fill="#020C13"/>
<path d="M1621.14 858.076L1583.89 840.442H1658.4L1621.14 858.076Z" fill="#F29CEB"/>
<path d="M1621.14 775.981L1658.4 793.615H1583.89L1621.14 775.981Z" fill="#F29CEB"/>
<rect x="1583.9" y="793.582" width="74.4771" height="46.893" fill="#F29CEB"/>
<path d="M1660.52 789.904L1623.26 772.27H1697.77L1660.52 789.904Z" fill="#020C13"/>
<path d="M1660.52 707.808L1697.77 725.442H1623.26L1660.52 707.808Z" fill="#020C13"/>
<rect x="1623.28" y="725.409" width="74.4771" height="46.893" fill="#020C13"/>
<path d="M1699.89 858.076L1662.63 840.442H1737.14L1699.89 858.076Z" fill="#020C13"/>
<path d="M1699.89 775.981L1737.14 793.615H1662.63L1699.89 775.981Z" fill="#020C13"/>
<rect x="1662.65" y="793.582" width="74.4771" height="46.893" fill="#020C13"/>
<path d="M1699.89 722.096L1662.63 704.461H1737.14L1699.89 722.096Z" fill="#020C13"/>
<path d="M1699.89 640L1737.14 657.634H1662.63L1699.89 640Z" fill="#020C13"/>
<rect x="1662.65" y="657.601" width="74.4771" height="46.893" fill="#020C13"/>
<path d="M1738.53 789.904L1701.28 772.27H1775.79L1738.53 789.904Z" fill="#020C13"/>
<path d="M1738.53 707.808L1775.79 725.442H1701.28L1738.53 707.808Z" fill="#020C13"/>
<rect x="1701.29" y="725.409" width="74.4771" height="46.893" fill="#020C13"/>
<path d="M1778.27 858.076L1741.01 840.442H1815.52L1778.27 858.076Z" fill="#020C13"/>
<path d="M1778.27 775.981L1815.52 793.615H1741.01L1778.27 775.981Z" fill="#020C13"/>
<rect x="1741.03" y="793.582" width="74.4771" height="46.893" fill="#020C13"/>
<path d="M1817.66 844.933L1854.91 862.576L1780.4 862.557L1817.66 844.933Z" fill="#020C13"/>
<path d="M1817.64 927.028L1780.39 909.385L1854.9 909.403L1817.64 927.028Z" fill="#020C13"/>
<rect x="1854.88" y="909.436" width="74.4771" height="46.893" transform="rotate(-179.986 1854.88 909.436)" fill="#020C13"/>
<path d="M1778.27 913.095L1815.52 930.739L1741.01 930.72L1778.27 913.095Z" fill="#020C13"/>
<path d="M1778.25 995.191L1741 977.548L1815.51 977.566L1778.25 995.191Z" fill="#020C13"/>
<rect x="1815.49" y="977.599" width="74.4771" height="46.893" transform="rotate(-179.986 1815.49 977.599)" fill="#020C13"/>
<path d="M1738.92 844.913L1776.17 862.556L1701.66 862.538L1738.92 844.913Z" fill="#020C13"/>
<path d="M1738.9 927.008L1701.65 909.365L1776.16 909.384L1738.9 927.008Z" fill="#020C13"/>
<rect x="1776.14" y="909.417" width="74.4771" height="46.893" transform="rotate(-179.986 1776.14 909.417)" fill="#020C13"/>
<path d="M1738.88 980.894L1776.13 998.537L1701.62 998.519L1738.88 980.894Z" fill="#020C13"/>
<path d="M1738.86 1062.99L1701.61 1045.35L1776.12 1045.36L1738.86 1062.99Z" fill="#020C13"/>
<rect x="1776.11" y="1045.4" width="74.4771" height="46.893" transform="rotate(-179.986 1776.11 1045.4)" fill="#020C13"/>
<path d="M1700.26 913.076L1737.51 930.719L1663 930.701L1700.26 913.076Z" fill="#020C13"/>
<path d="M1700.24 995.172L1662.99 977.528L1737.5 977.547L1700.24 995.172Z" fill="#020C13"/>
<rect x="1737.48" y="977.58" width="74.4771" height="46.893" transform="rotate(-179.986 1737.48 977.58)" fill="#020C13"/>
<path d="M1660.54 844.893L1697.79 862.537L1623.28 862.518L1660.54 844.893Z" fill="#020C13"/>
<path d="M1660.52 926.989L1623.27 909.346L1697.77 909.364L1660.52 926.989Z" fill="#020C13"/>
<rect x="1697.76" y="909.397" width="74.4771" height="46.893" transform="rotate(-179.986 1697.76 909.397)" fill="#020C13"/>
<path d="M1307.02 722.151L1269.76 704.517H1344.27L1307.02 722.151Z" fill="#020C13"/>
<path d="M1307.02 640.055L1344.27 657.69H1269.76L1307.02 640.055Z" fill="#020C13"/>
<rect x="1269.78" y="657.657" width="74.4771" height="46.893" fill="#020C13"/>
<path d="M1346.39 653.978L1309.14 636.344H1383.65L1346.39 653.978Z" fill="#020C13"/>
<path d="M1346.39 571.883L1383.65 589.517H1309.14L1346.39 571.883Z" fill="#020C13"/>
<rect x="1309.15" y="589.484" width="74.4771" height="46.893" fill="#020C13"/>
<path d="M1385.76 722.151L1348.51 704.517H1423.02L1385.76 722.151Z" fill="#020C13"/>
<path d="M1385.76 640.055L1423.02 657.69H1348.51L1385.76 640.055Z" fill="#020C13"/>
<rect x="1348.52" y="657.657" width="74.4771" height="46.893" fill="#020C13"/>
<path d="M1385.76 586.17L1348.51 568.536H1423.02L1385.76 586.17Z" fill="#020C13"/>
<path d="M1385.76 504.074L1423.02 521.709H1348.51L1385.76 504.074Z" fill="#020C13"/>
<rect x="1348.52" y="521.676" width="74.4771" height="46.893" fill="#020C13"/>
<path d="M1424.41 653.978L1387.15 636.344H1461.66L1424.41 653.978Z" fill="#020C13"/>
<path d="M1424.41 571.883L1461.66 589.517H1387.15L1424.41 571.883Z" fill="#020C13"/>
<rect x="1387.17" y="589.484" width="74.4771" height="46.893" fill="#020C13"/>
<path d="M1464.14 722.151L1426.89 704.517H1501.4L1464.14 722.151Z" fill="#020C13"/>
<path d="M1464.14 640.055L1501.4 657.69H1426.89L1464.14 640.055Z" fill="#020C13"/>
<rect x="1426.9" y="657.657" width="74.4771" height="46.893" fill="#020C13"/>
<path d="M1464.14 585.076L1426.89 567.442H1501.4L1464.14 585.076Z" fill="#020C13"/>
<path d="M1464.14 502.981L1501.4 520.615H1426.89L1464.14 502.981Z" fill="#020C13"/>
<rect x="1426.9" y="520.582" width="74.4771" height="46.893" fill="#020C13"/>
<path d="M1503.52 516.904L1466.26 499.27H1540.77L1503.52 516.904Z" fill="#020C13"/>
<path d="M1503.52 434.808L1540.77 452.442H1466.26L1503.52 434.808Z" fill="#020C13"/>
<rect x="1466.28" y="452.409" width="74.4771" height="46.893" fill="#020C13"/>
<path d="M1542.89 585.076L1505.63 567.442H1580.14L1542.89 585.076Z" fill="#020C13"/>
<path d="M1542.89 502.981L1580.14 520.615H1505.63L1542.89 502.981Z" fill="#020C13"/>
<rect x="1505.65" y="520.582" width="74.4771" height="46.893" fill="#020C13"/>
<path d="M1542.89 449.096L1505.63 431.461H1580.14L1542.89 449.096Z" fill="#020C13"/>
<path d="M1542.89 367L1580.14 384.634H1505.63L1542.89 367Z" fill="#020C13"/>
<rect x="1505.65" y="384.601" width="74.4771" height="46.893" fill="#020C13"/>
<path d="M1581.53 516.904L1544.28 499.27H1618.79L1581.53 516.904Z" fill="#020C13"/>
<path d="M1581.53 434.808L1618.79 452.442H1544.28L1581.53 434.808Z" fill="#020C13"/>
<rect x="1544.29" y="452.409" width="74.4771" height="46.893" fill="#020C13"/>
<path d="M1621.27 585.076L1584.01 567.442H1658.52L1621.27 585.076Z" fill="#020C13"/>
<path d="M1621.27 502.981L1658.52 520.615H1584.01L1621.27 502.981Z" fill="#020C13"/>
<rect x="1584.03" y="520.582" width="74.4771" height="46.893" fill="#020C13"/>
<path d="M1660.66 571.933L1697.91 589.576L1623.4 589.557L1660.66 571.933Z" fill="#020C13"/>
<path d="M1660.64 654.028L1623.39 636.385L1697.9 636.403L1660.64 654.028Z" fill="#020C13"/>
<rect x="1697.88" y="636.436" width="74.4771" height="46.893" transform="rotate(-179.986 1697.88 636.436)" fill="#020C13"/>
<path d="M1621.27 640.095L1658.52 657.739L1584.01 657.72L1621.27 640.095Z" fill="#020C13"/>
<path d="M1621.25 722.191L1584 704.548L1658.51 704.566L1621.25 722.191Z" fill="#020C13"/>
<rect x="1658.49" y="704.599" width="74.4771" height="46.893" transform="rotate(-179.986 1658.49 704.599)" fill="#020C13"/>
<path d="M1581.92 571.913L1619.17 589.556L1544.66 589.538L1581.92 571.913Z" fill="#020C13"/>
<path d="M1581.9 654.008L1544.65 636.365L1619.16 636.384L1581.9 654.008Z" fill="#020C13"/>
<rect x="1619.14" y="636.417" width="74.4771" height="46.893" transform="rotate(-179.986 1619.14 636.417)" fill="#020C13"/>
<path d="M1581.88 707.894L1619.13 725.537L1544.62 725.519L1581.88 707.894Z" fill="#020C13"/>
<path d="M1581.86 789.989L1544.61 772.346L1619.12 772.364L1581.86 789.989Z" fill="#020C13"/>
<rect x="1619.11" y="772.397" width="74.4771" height="46.893" transform="rotate(-179.986 1619.11 772.397)" fill="#020C13"/>
<path d="M1543.26 640.076L1580.51 657.719L1506 657.701L1543.26 640.076Z" fill="#020C13"/>
<path d="M1543.24 722.172L1505.99 704.528L1580.5 704.547L1543.24 722.172Z" fill="#020C13"/>
<rect x="1580.48" y="704.58" width="74.4771" height="46.893" transform="rotate(-179.986 1580.48 704.58)" fill="#020C13"/>
<path d="M1503.54 571.893L1540.79 589.537L1466.28 589.518L1503.54 571.893Z" fill="#020C13"/>
<path d="M1503.52 653.989L1466.27 636.346L1540.77 636.364L1503.52 653.989Z" fill="#020C13"/>
<rect x="1540.76" y="636.397" width="74.4771" height="46.893" transform="rotate(-179.986 1540.76 636.397)" fill="#020C13"/>
<path d="M1660.66 161.849L1697.92 179.483L1623.41 179.483L1660.66 161.849Z" fill="#020C13"/>
<path d="M1660.66 243.945L1623.41 226.311L1697.92 226.311L1660.66 243.945Z" fill="#020C13"/>
<rect x="1697.9" y="226.343" width="74.4771" height="46.893" transform="rotate(-180 1697.9 226.343)" fill="#020C13"/>
<path d="M1621.29 230.022L1658.54 247.656L1584.03 247.656L1621.29 230.022Z" fill="#020C13"/>
<path d="M1621.29 312.117L1584.03 294.483L1658.54 294.483L1621.29 312.117Z" fill="#020C13"/>
<rect x="1658.53" y="294.516" width="74.4771" height="46.893" transform="rotate(-180 1658.53 294.516)" fill="#020C13"/>
<path d="M1581.92 161.849L1619.17 179.483L1544.66 179.483L1581.92 161.849Z" fill="#020C13"/>
<path d="M1581.92 243.945L1544.66 226.311L1619.17 226.311L1581.92 243.945Z" fill="#020C13"/>
<rect x="1619.16" y="226.343" width="74.4771" height="46.893" transform="rotate(-180 1619.16 226.343)" fill="#020C13"/>
<path d="M1581.92 297.83L1619.17 315.464L1544.66 315.464L1581.92 297.83Z" fill="#020C13"/>
<path d="M1581.92 379.926L1544.66 362.291L1619.17 362.291L1581.92 379.926Z" fill="#020C13"/>
<rect x="1619.16" y="362.324" width="74.4771" height="46.893" transform="rotate(-180 1619.16 362.324)" fill="#020C13"/>
<path d="M1543.27 230.022L1580.53 247.656L1506.02 247.656L1543.27 230.022Z" fill="#020C13"/>
<path d="M1543.27 312.117L1506.02 294.483L1580.53 294.483L1543.27 312.117Z" fill="#020C13"/>
<rect x="1580.51" y="294.516" width="74.4771" height="46.893" transform="rotate(-180 1580.51 294.516)" fill="#020C13"/>
<path d="M1503.54 161.849L1540.79 179.483L1466.28 179.483L1503.54 161.849Z" fill="#020C13"/>
<path d="M1503.54 243.945L1466.28 226.311L1540.79 226.311L1503.54 243.945Z" fill="#020C13"/>
<rect x="1540.77" y="226.343" width="74.4771" height="46.893" transform="rotate(-180 1540.77 226.343)" fill="#020C13"/>
<path d="M1503.54 298.924L1540.79 316.558L1466.28 316.558L1503.54 298.924Z" fill="#80EFF3"/>
<path d="M1503.54 381.019L1466.28 363.385L1540.79 363.385L1503.54 381.019Z" fill="#80EFF3"/>
<rect x="1540.77" y="363.418" width="74.4771" height="46.893" transform="rotate(-180 1540.77 363.418)" fill="#80EFF3"/>
<path d="M1464.16 367.096L1501.42 384.731L1426.91 384.73L1464.16 367.096Z" fill="#020C13"/>
<path d="M1464.16 449.192L1426.91 431.558L1501.42 431.558L1464.16 449.192Z" fill="#020C13"/>
<rect x="1501.4" y="431.591" width="74.4771" height="46.893" transform="rotate(-180 1501.4 431.591)" fill="#020C13"/>
<path d="M1424.79 298.924L1462.05 316.558L1387.54 316.558L1424.79 298.924Z" fill="#020C13"/>
<path d="M1424.79 381.019L1387.54 363.385L1462.05 363.385L1424.79 381.019Z" fill="#020C13"/>
<rect x="1462.03" y="363.418" width="74.4771" height="46.893" transform="rotate(-180 1462.03 363.418)" fill="#020C13"/>
<path d="M1424.79 434.904L1462.05 452.539L1387.54 452.539L1424.79 434.904Z" fill="#020C13"/>
<path d="M1424.79 517L1387.54 499.366L1462.05 499.366L1424.79 517Z" fill="#020C13"/>
<rect x="1462.03" y="499.399" width="74.4771" height="46.893" transform="rotate(-180 1462.03 499.399)" fill="#020C13"/>
<path d="M1386.15 367.096L1423.4 384.731L1348.89 384.73L1386.15 367.096Z" fill="#020C13"/>
<path d="M1386.15 449.192L1348.89 431.558L1423.4 431.558L1386.15 449.192Z" fill="#020C13"/>
<rect x="1423.39" y="431.591" width="74.4771" height="46.893" transform="rotate(-180 1423.39 431.591)" fill="#020C13"/>
<path d="M1346.41 298.924L1383.67 316.558L1309.16 316.558L1346.41 298.924Z" fill="#020C13"/>
<path d="M1346.41 381.019L1309.16 363.385L1383.67 363.385L1346.41 381.019Z" fill="#020C13"/>
<rect x="1383.65" y="363.418" width="74.4771" height="46.893" transform="rotate(-180 1383.65 363.418)" fill="#020C13"/>
<path d="M1307.02 312.067L1269.77 294.424L1344.28 294.443L1307.02 312.067Z" fill="#020C13"/>
<path d="M1307.04 229.972L1344.29 247.615L1269.78 247.597L1307.04 229.972Z" fill="#020C13"/>
<rect x="1269.8" y="247.564" width="74.4771" height="46.893" transform="rotate(0.0142732 1269.8 247.564)" fill="#020C13"/>
<path d="M1346.41 243.905L1309.16 226.261L1383.67 226.28L1346.41 243.905Z" fill="#020C13"/>
<path d="M1346.43 161.809L1383.68 179.452L1309.17 179.434L1346.43 161.809Z" fill="#020C13"/>
<rect x="1309.18" y="179.401" width="74.4771" height="46.893" transform="rotate(0.0142732 1309.18 179.401)" fill="#020C13"/>
<path d="M1385.76 312.087L1348.51 294.444L1423.02 294.462L1385.76 312.087Z" fill="#020C13"/>
<path d="M1385.78 229.992L1423.03 247.635L1348.52 247.616L1385.78 229.992Z" fill="#020C13"/>
<rect x="1348.54" y="247.584" width="74.4771" height="46.893" transform="rotate(0.0142732 1348.54 247.584)" fill="#020C13"/>
<path d="M1385.8 176.106L1348.55 158.463L1423.06 158.481L1385.8 176.106Z" fill="#020C13"/>
<path d="M1385.82 94.0107L1423.07 111.654L1348.56 111.636L1385.82 94.0107Z" fill="#020C13"/>
<rect x="1348.57" y="111.603" width="74.4771" height="46.893" transform="rotate(0.0142732 1348.57 111.603)" fill="#020C13"/>
<path d="M1424.42 243.924L1387.17 226.281L1461.68 226.299L1424.42 243.924Z" fill="#020C13"/>
<path d="M1424.44 161.828L1461.69 179.472L1387.18 179.453L1424.44 161.828Z" fill="#020C13"/>
<rect x="1387.2" y="179.42" width="74.4771" height="46.893" transform="rotate(0.0142732 1387.2 179.42)" fill="#020C13"/>
<path d="M1464.14 312.107L1426.89 294.463L1501.4 294.482L1464.14 312.107Z" fill="#020C13"/>
<path d="M1464.16 230.011L1501.41 247.654L1426.9 247.636L1464.16 230.011Z" fill="#020C13"/>
<rect x="1426.92" y="247.603" width="74.4771" height="46.893" transform="rotate(0.0142732 1426.92 247.603)" fill="#020C13"/>
<path d="M1620.92 38.9255L1583.66 21.2914L1658.17 21.2914L1620.92 38.9255Z" fill="#020C13"/>
<rect x="1658.16" y="21.3242" width="74.4771" height="46.893" transform="rotate(-180 1658.16 21.3242)" fill="#020C13"/>
<path d="M1542.54 40.0191L1505.28 22.385L1579.79 22.385L1542.54 40.0191Z" fill="#020C13"/>
<rect x="1579.77" y="22.4178" width="74.4771" height="46.893" transform="rotate(-180 1579.77 22.4178)" fill="#020C13"/>
<path d="M1503.16 26.0963L1540.42 43.7305L1465.91 43.7305L1503.16 26.0963Z" fill="#020C13"/>
<path d="M1503.16 108.192L1465.91 90.5578L1540.42 90.5578L1503.16 108.192Z" fill="#020C13"/>
<rect x="1540.4" y="90.5906" width="74.4771" height="46.893" transform="rotate(-180 1540.4 90.5906)" fill="#020C13"/>
<path d="M1463.79 40.0191L1426.54 22.385L1501.05 22.385L1463.79 40.0191Z" fill="#020C13"/>
<rect x="1501.03" y="22.4178" width="74.4771" height="46.893" transform="rotate(-180 1501.03 22.4178)" fill="#020C13"/>
<path d="M1463.79 93.9045L1501.05 111.539L1426.54 111.539L1463.79 93.9045Z" fill="#020C13"/>
<path d="M1463.79 176L1426.54 158.366L1501.05 158.366L1463.79 176Z" fill="#020C13"/>
<rect x="1501.03" y="158.399" width="74.4771" height="46.893" transform="rotate(-180 1501.03 158.399)" fill="#020C13"/>
<path d="M1425.15 26.0963L1462.4 43.7305L1387.89 43.7305L1425.15 26.0963Z" fill="#020C13"/>
<path d="M1425.15 108.192L1387.89 90.5578L1462.4 90.5578L1425.15 108.192Z" fill="#020C13"/>
<rect x="1462.39" y="90.5906" width="74.4771" height="46.893" transform="rotate(-180 1462.39 90.5906)" fill="#020C13"/>
<path d="M1385.41 40.0191L1348.16 22.385L1422.67 22.385L1385.41 40.0191Z" fill="#020C13"/>
<rect x="1422.65" y="22.4178" width="74.4771" height="46.893" transform="rotate(-180 1422.65 22.4178)" fill="#020C13"/>
<path d="M1621.02 446.151L1583.76 428.517H1658.27L1621.02 446.151Z" fill="#020C13"/>
<path d="M1621.02 364.055L1658.27 381.69H1583.76L1621.02 364.055Z" fill="#020C13"/>
<rect x="1583.78" y="381.657" width="74.4771" height="46.893" fill="#020C13"/>
<path d="M1660.39 377.978L1623.14 360.344H1697.65L1660.39 377.978Z" fill="#020C13"/>
<path d="M1660.39 295.883L1697.65 313.517H1623.14L1660.39 295.883Z" fill="#020C13"/>
<rect x="1623.15" y="313.484" width="74.4771" height="46.893" fill="#020C13"/>
<path d="M1699.76 446.151L1662.51 428.517H1737.02L1699.76 446.151Z" fill="#020C13"/>
<path d="M1699.76 364.055L1737.02 381.69H1662.51L1699.76 364.055Z" fill="#020C13"/>
<rect x="1662.52" y="381.657" width="74.4771" height="46.893" fill="#020C13"/>
<path d="M1699.76 310.17L1662.51 292.536H1737.02L1699.76 310.17Z" fill="#F09DEB"/>
<path d="M1699.76 228.074L1737.02 245.709H1662.51L1699.76 228.074Z" fill="#F09DEB"/>
<rect x="1662.52" y="245.676" width="74.4771" height="46.893" fill="#F09DEB"/>
<path d="M1738.41 377.978L1701.15 360.344H1775.66L1738.41 377.978Z" fill="#020C13"/>
<path d="M1738.41 295.883L1775.66 313.517H1701.15L1738.41 295.883Z" fill="#020C13"/>
<rect x="1701.17" y="313.484" width="74.4771" height="46.893" fill="#020C13"/>
<path d="M1778.14 446.151L1740.89 428.517H1815.4L1778.14 446.151Z" fill="#020C13"/>
<path d="M1778.14 364.055L1815.4 381.69H1740.89L1778.14 364.055Z" fill="#020C13"/>
<rect x="1740.9" y="381.657" width="74.4771" height="46.893" fill="#020C13"/>
<path d="M1778.14 309.076L1740.89 291.442H1815.4L1778.14 309.076Z" fill="#020C13"/>
<path d="M1778.14 226.981L1815.4 244.615H1740.89L1778.14 226.981Z" fill="#020C13"/>
<rect x="1740.9" y="244.582" width="74.4771" height="46.893" fill="#020C13"/>
<path d="M1817.52 240.904L1780.26 223.27H1854.77L1817.52 240.904Z" fill="#020C13"/>
<path d="M1817.52 158.808L1854.77 176.442H1780.26L1817.52 158.808Z" fill="#020C13"/>
<rect x="1780.28" y="176.409" width="74.4771" height="46.893" fill="#020C13"/>
<path d="M1817.54 295.893L1854.79 313.537L1780.28 313.518L1817.54 295.893Z" fill="#020C13"/>
<path d="M1817.52 377.989L1780.27 360.346L1854.77 360.364L1817.52 377.989Z" fill="#020C13"/>
<rect x="1854.76" y="360.397" width="74.4771" height="46.893" transform="rotate(-179.986 1854.76 360.397)" fill="#020C13"/>
<path d="M1817.16 1254.1L1854.42 1271.73L1779.91 1271.73L1817.16 1254.1Z" fill="#020C13"/>
<path d="M1817.16 1336.19L1779.91 1318.56L1854.42 1318.56L1817.16 1336.19Z" fill="#020C13"/>
<rect x="1854.4" y="1318.59" width="74.4771" height="46.893" transform="rotate(-180 1854.4 1318.59)" fill="#020C13"/>
<path d="M1777.79 1185.92L1815.05 1203.56L1740.54 1203.56L1777.79 1185.92Z" fill="#020C13"/>
<path d="M1777.79 1268.02L1740.54 1250.38L1815.05 1250.38L1777.79 1268.02Z" fill="#020C13"/>
<rect x="1815.03" y="1250.42" width="74.4771" height="46.893" transform="rotate(-180 1815.03 1250.42)" fill="#020C13"/>
<path d="M1777.79 1321.9L1815.05 1339.54L1740.54 1339.54L1777.79 1321.9Z" fill="#020C13"/>
<path d="M1777.79 1404L1740.54 1386.37L1815.05 1386.37L1777.79 1404Z" fill="#020C13"/>
<rect x="1815.03" y="1386.4" width="74.4771" height="46.893" transform="rotate(-180 1815.03 1386.4)" fill="#020C13"/>
<path d="M1739.15 1254.1L1776.4 1271.73L1701.89 1271.73L1739.15 1254.1Z" fill="#80EFF3"/>
<path d="M1739.15 1336.19L1701.89 1318.56L1776.4 1318.56L1739.15 1336.19Z" fill="#80EFF3"/>
<rect x="1776.39" y="1318.59" width="74.4771" height="46.893" transform="rotate(-180 1776.39 1318.59)" fill="#80EFF3"/>
<path d="M1699.41 1185.92L1736.67 1203.56L1662.16 1203.56L1699.41 1185.92Z" fill="#020C13"/>
<path d="M1699.41 1268.02L1662.16 1250.38L1736.67 1250.38L1699.41 1268.02Z" fill="#020C13"/>
<rect x="1736.65" y="1250.42" width="74.4771" height="46.893" transform="rotate(-180 1736.65 1250.42)" fill="#020C13"/>
<path d="M1660.02 1199.07L1622.77 1181.42L1697.28 1181.44L1660.02 1199.07Z" fill="#020C13"/>
<path d="M1660.04 1116.97L1697.29 1134.62L1622.78 1134.6L1660.04 1116.97Z" fill="#020C13"/>
<rect x="1622.8" y="1134.56" width="74.4771" height="46.893" transform="rotate(0.0142732 1622.8 1134.56)" fill="#020C13"/>
<path d="M1699.41 1130.9L1662.16 1113.26L1736.67 1113.28L1699.41 1130.9Z" fill="#020C13"/>
<path d="M1699.43 1048.81L1736.68 1066.45L1662.17 1066.43L1699.43 1048.81Z" fill="#020C13"/>
<rect x="1662.19" y="1066.4" width="74.4771" height="46.893" transform="rotate(0.0142732 1662.19 1066.4)" fill="#020C13"/>
<path d="M1738.76 1199.09L1701.51 1181.44L1776.02 1181.46L1738.76 1199.09Z" fill="#020C13"/>
<path d="M1738.78 1116.99L1776.03 1134.63L1701.52 1134.62L1738.78 1116.99Z" fill="#020C13"/>
<rect x="1701.54" y="1134.58" width="74.4771" height="46.893" transform="rotate(0.0142732 1701.54 1134.58)" fill="#020C13"/>
<path d="M1738.8 1063.11L1701.55 1045.46L1776.06 1045.48L1738.8 1063.11Z" fill="#020C13"/>
<path d="M1738.82 981.011L1776.07 998.654L1701.56 998.635L1738.82 981.011Z" fill="#020C13"/>
<rect x="1701.57" y="998.603" width="74.4771" height="46.893" transform="rotate(0.0142732 1701.57 998.603)" fill="#020C13"/>
<path d="M1777.42 1130.92L1740.17 1113.28L1814.68 1113.3L1777.42 1130.92Z" fill="#020C13"/>
<path d="M1777.44 1048.83L1814.69 1066.47L1740.18 1066.45L1777.44 1048.83Z" fill="#020C13"/>
<rect x="1740.2" y="1066.42" width="74.4771" height="46.893" transform="rotate(0.0142732 1740.2 1066.42)" fill="#020C13"/>
<path d="M1817.14 1199.11L1779.89 1181.46L1854.4 1181.48L1817.14 1199.11Z" fill="#020C13"/>
<path d="M1817.16 1117.01L1854.41 1134.65L1779.9 1134.64L1817.16 1117.01Z" fill="#020C13"/>
<rect x="1779.92" y="1134.6" width="74.4771" height="46.893" transform="rotate(0.0142732 1779.92 1134.6)" fill="#020C13"/>
<path d="M1041.37 1249.07L1007.85 1258.42L1055.39 1217.21L1041.37 1249.07Z" fill="#020C13"/>
<path d="M995.97 1196.68L1029.49 1187.33L981.95 1228.54L995.97 1196.68Z" fill="#020C13"/>
<rect x="981.942" y="1228.51" width="62.8881" height="39.5963" transform="rotate(-40.9155 981.942 1228.51)" fill="#020C13"/>
<path d="M1028.79 1183.79L995.269 1193.15L1042.81 1151.94L1028.79 1183.79Z" fill="#020C13"/>
<path d="M983.391 1131.41L1016.92 1122.06L969.372 1163.27L983.391 1131.41Z" fill="#020C13"/>
<rect x="969.364" y="1163.24" width="62.8881" height="39.5963" transform="rotate(-40.9155 969.364 1163.24)" fill="#020C13"/>
<path d="M1091.62 1205.52L1058.09 1214.87L1105.64 1173.67L1091.62 1205.52Z" fill="#020C13"/>
<path d="M1046.22 1153.14L1079.74 1143.79L1032.2 1184.99L1046.22 1153.14Z" fill="#020C13"/>
<rect x="1032.19" y="1184.96" width="62.8881" height="39.5963" transform="rotate(-40.9155 1032.19 1184.96)" fill="#020C13"/>
<path d="M1016.42 1118.75L982.892 1128.1L1030.44 1086.9L1016.42 1118.75Z" fill="#020C13"/>
<path d="M971.014 1066.37L1004.54 1057.02L956.995 1098.22L971.014 1066.37Z" fill="#020C13"/>
<rect x="956.987" y="1098.19" width="62.8881" height="39.5963" transform="rotate(-40.9155 956.987 1098.19)" fill="#020C13"/>
<path d="M1078.57 1140.65L1045.05 1150L1092.59 1108.79L1078.57 1140.65Z" fill="#020C13"/>
<path d="M1033.17 1088.26L1066.7 1078.91L1019.15 1120.12L1033.17 1088.26Z" fill="#020C13"/>
<rect x="1019.14" y="1120.09" width="62.8881" height="39.5963" transform="rotate(-40.9155 1019.14 1120.09)" fill="#020C13"/>
<path d="M1141.63 1162.17L1108.11 1171.52L1155.65 1130.32L1141.63 1162.17Z" fill="#020C13"/>
<path d="M1096.23 1109.79L1129.75 1100.44L1082.21 1141.64L1096.23 1109.79Z" fill="#020C13"/>
<rect x="1082.2" y="1141.61" width="62.8881" height="39.5963" transform="rotate(-40.9155 1082.2 1141.61)" fill="#020C13"/>
<path d="M1065.82 1074.71L1032.3 1084.06L1079.84 1042.85L1065.82 1074.71Z" fill="#020C13"/>
<path d="M1020.42 1022.32L1053.95 1012.97L1006.4 1054.18L1020.42 1022.32Z" fill="#020C13"/>
<rect x="1006.4" y="1054.15" width="62.8881" height="39.5963" transform="rotate(-40.9155 1006.4 1054.15)" fill="#020C13"/>
<path d="M1053.25 1009.43L1019.72 1018.78L1067.27 977.578L1053.25 1009.43Z" fill="#020C13"/>
<path d="M1007.84 957.049L1041.37 947.698L993.825 988.904L1007.84 957.049Z" fill="#020C13"/>
<rect x="993.817" y="988.874" width="62.8881" height="39.5963" transform="rotate(-40.9155 993.817 988.874)" fill="#020C13"/>
<path d="M1116.07 1031.16L1082.55 1040.51L1130.09 999.304L1116.07 1031.16Z" fill="#020C13"/>
<path d="M1070.67 978.775L1104.19 969.424L1056.65 1010.63L1070.67 978.775Z" fill="#020C13"/>
<rect x="1056.64" y="1010.6" width="62.8881" height="39.5963" transform="rotate(-40.9155 1056.64 1010.6)" fill="#020C13"/>
<path d="M1040.87 944.391L1007.34 953.742L1054.89 912.536L1040.87 944.391Z" fill="#020C13"/>
<path d="M995.468 892.007L1028.99 882.656L981.448 923.862L995.468 892.007Z" fill="#020C13"/>
<rect x="981.44" y="923.832" width="62.8881" height="39.5963" transform="rotate(-40.9155 981.44 923.832)" fill="#020C13"/>
<path d="M1103.03 966.288L1069.5 975.639L1117.05 934.432L1103.03 966.288Z" fill="#020C13"/>
<path d="M1057.63 913.903L1091.15 904.552L1043.61 945.759L1057.63 913.903Z" fill="#020C13"/>
<rect x="1043.6" y="945.729" width="62.8881" height="39.5963" transform="rotate(-40.9155 1043.6 945.729)" fill="#020C13"/>
<path d="M1166.08 987.812L1132.56 997.163L1180.1 955.957L1166.08 987.812Z" fill="#020C13"/>
<path d="M1120.68 935.428L1154.21 926.077L1106.66 967.283L1120.68 935.428Z" fill="#020C13"/>
<rect x="1106.66" y="967.253" width="62.8881" height="39.5963" transform="rotate(-40.9155 1106.66 967.253)" fill="#020C13"/>
<path d="M1183.95 957.64L1217.48 948.297L1169.92 989.491L1183.95 957.64Z" fill="#020C13"/>
<path d="M1229.34 1010.04L1195.81 1019.38L1243.37 978.184L1229.34 1010.04Z" fill="#020C13"/>
<rect x="1243.38" y="978.214" width="62.8882" height="39.5963" transform="rotate(139.099 1243.38 978.214)" fill="#020C13"/>
<path d="M1196.51 1022.92L1230.04 1013.57L1182.49 1054.77L1196.51 1022.92Z" fill="#020C13"/>
<path d="M1241.9 1075.31L1208.38 1084.66L1255.93 1043.46L1241.9 1075.31Z" fill="#020C13"/>
<rect x="1255.94" y="1043.49" width="62.8882" height="39.5963" transform="rotate(139.099 1255.94 1043.49)" fill="#020C13"/>
<path d="M1133.69 1001.18L1167.22 991.833L1119.67 1033.03L1133.69 1001.18Z" fill="#020C13"/>
<path d="M1179.08 1053.57L1145.56 1062.91L1193.11 1021.72L1179.08 1053.57Z" fill="#020C13"/>
<rect x="1193.12" y="1021.75" width="62.8882" height="39.5963" transform="rotate(139.099 1193.12 1021.75)" fill="#020C13"/>
<path d="M1208.88 1087.96L1242.4 1078.62L1194.85 1119.81L1208.88 1087.96Z" fill="#020C13"/>
<path d="M1254.26 1140.36L1220.74 1149.7L1268.29 1108.51L1254.26 1140.36Z" fill="#020C13"/>
<rect x="1268.3" y="1108.54" width="62.8882" height="39.5963" transform="rotate(139.099 1268.3 1108.54)" fill="#020C13"/>
<path d="M1146.72 1066.05L1180.25 1056.71L1132.69 1097.9L1146.72 1066.05Z" fill="#020C13"/>
<path d="M1192.11 1118.45L1158.58 1127.79L1206.14 1086.59L1192.11 1118.45Z" fill="#020C13"/>
<rect x="1206.15" y="1086.62" width="62.8882" height="39.5963" transform="rotate(139.099 1206.15 1086.62)" fill="#020C13"/>
<path d="M1083.67 1044.51L1117.2 1035.17L1069.64 1076.36L1083.67 1044.51Z" fill="#020C13"/>
<path d="M1129.06 1096.91L1095.53 1106.25L1143.09 1065.05L1129.06 1096.91Z" fill="#020C13"/>
<rect x="1143.09" y="1065.08" width="62.8882" height="39.5963" transform="rotate(139.099 1143.09 1065.08)" fill="#020C13"/>
<path d="M790.213 1161.7L756.689 1171.05L804.233 1129.84L790.213 1161.7Z" fill="#020C13"/>
<path d="M744.811 1109.31L778.336 1099.96L730.792 1141.17L744.811 1109.31Z" fill="#020C13"/>
<rect x="730.784" y="1141.14" width="62.8881" height="39.5963" transform="rotate(-40.9155 730.784 1141.14)" fill="#020C13"/>
<path d="M777.634 1096.42L744.11 1105.77L791.654 1064.57L777.634 1096.42Z" fill="#020C13"/>
<path d="M732.233 1044.04L765.757 1034.69L718.213 1075.89L732.233 1044.04Z" fill="#020C13"/>
<rect x="718.205" y="1075.86" width="62.8881" height="39.5963" transform="rotate(-40.9155 718.205 1075.86)" fill="#020C13"/>
<path d="M840.459 1118.15L806.935 1127.5L854.479 1086.29L840.459 1118.15Z" fill="#020C13"/>
<path d="M795.058 1065.76L828.582 1056.41L781.038 1097.62L795.058 1065.76Z" fill="#020C13"/>
<rect x="781.03" y="1097.59" width="62.8881" height="39.5963" transform="rotate(-40.9155 781.03 1097.59)" fill="#020C13"/>
<path d="M765.257 1031.38L731.733 1040.73L779.277 999.525L765.257 1031.38Z" fill="#020C13"/>
<path d="M719.856 978.996L753.38 969.645L705.836 1010.85L719.856 978.996Z" fill="#020C13"/>
<rect x="705.828" y="1010.82" width="62.8881" height="39.5963" transform="rotate(-40.9155 705.828 1010.82)" fill="#020C13"/>
<path d="M827.416 1053.28L793.891 1062.63L841.435 1021.42L827.416 1053.28Z" fill="#020C13"/>
<path d="M782.014 1000.89L815.538 991.541L767.994 1032.75L782.014 1000.89Z" fill="#020C13"/>
<rect x="767.987" y="1032.72" width="62.8881" height="39.5963" transform="rotate(-40.9155 767.987 1032.72)" fill="#020C13"/>
<path d="M890.473 1074.8L856.949 1084.15L904.493 1042.95L890.473 1074.8Z" fill="#020C13"/>
<path d="M845.072 1022.42L878.596 1013.07L831.052 1054.27L845.072 1022.42Z" fill="#020C13"/>
<rect x="831.044" y="1054.24" width="62.8881" height="39.5963" transform="rotate(-40.9155 831.044 1054.24)" fill="#020C13"/>
<path d="M814.666 987.335L781.142 996.686L828.686 955.48L814.666 987.335Z" fill="#020C13"/>
<path d="M769.265 934.951L802.789 925.6L755.245 966.806L769.265 934.951Z" fill="#020C13"/>
<rect x="755.237" y="966.776" width="62.8881" height="39.5963" transform="rotate(-40.9155 755.237 966.776)" fill="#020C13"/>
<path d="M802.088 922.061L768.564 931.412L816.107 890.205L802.088 922.061Z" fill="#020C13"/>
<path d="M756.686 869.676L790.21 860.325L742.667 901.532L756.686 869.676Z" fill="#020C13"/>
<rect x="742.659" y="901.502" width="62.8881" height="39.5963" transform="rotate(-40.9155 742.659 901.502)" fill="#020C13"/>
<path d="M864.913 943.787L831.389 953.138L878.932 911.931L864.913 943.787Z" fill="#020C13"/>
<path d="M819.511 891.402L853.035 882.051L805.492 923.258L819.511 891.402Z" fill="#020C13"/>
<rect x="805.484" y="923.228" width="62.8881" height="39.5963" transform="rotate(-40.9155 805.484 923.228)" fill="#020C13"/>
<path d="M789.711 857.019L756.187 866.37L803.73 825.163L789.711 857.019Z" fill="#020C13"/>
<path d="M744.309 804.634L777.833 795.283L730.29 836.49L744.309 804.634Z" fill="#020C13"/>
<rect x="730.282" y="836.46" width="62.8881" height="39.5963" transform="rotate(-40.9155 730.282 836.46)" fill="#020C13"/>
<path d="M851.869 878.915L818.345 888.266L865.889 847.06L851.869 878.915Z" fill="#020C13"/>
<path d="M806.467 826.531L839.992 817.18L792.448 858.386L806.467 826.531Z" fill="#020C13"/>
<rect x="792.44" y="858.356" width="62.8881" height="39.5963" transform="rotate(-40.9155 792.44 858.356)" fill="#020C13"/>
<path d="M914.927 900.44L881.402 909.791L928.946 868.585L914.927 900.44Z" fill="#020C13"/>
<path d="M869.525 848.055L903.049 838.705L855.505 879.911L869.525 848.055Z" fill="#020C13"/>
<rect x="855.498" y="879.881" width="62.8881" height="39.5963" transform="rotate(-40.9155 855.498 879.881)" fill="#020C13"/>
<path d="M932.794 870.267L966.32 860.925L918.766 902.119L932.794 870.267Z" fill="#020C13"/>
<path d="M978.182 922.663L944.656 932.006L992.21 890.811L978.182 922.663Z" fill="#020C13"/>
<rect x="992.218" y="890.841" width="62.8882" height="39.5963" transform="rotate(139.099 992.218 890.841)" fill="#020C13"/>
<path d="M945.356 935.545L978.883 926.202L931.329 967.397L945.356 935.545Z" fill="#020C13"/>
<path d="M990.745 987.941L957.218 997.283L1004.77 956.089L990.745 987.941Z" fill="#020C13"/>
<rect x="1004.78" y="956.119" width="62.8882" height="39.5963" transform="rotate(139.099 1004.78 956.119)" fill="#020C13"/>
<path d="M882.537 913.803L916.063 904.461L868.509 945.655L882.537 913.803Z" fill="#020C13"/>
<path d="M927.925 966.199L894.399 975.542L941.953 934.347L927.925 966.199Z" fill="#020C13"/>
<rect x="941.96" y="934.377" width="62.8882" height="39.5963" transform="rotate(139.099 941.96 934.377)" fill="#020C13"/>
<path d="M957.717 1000.59L991.243 991.247L943.689 1032.44L957.717 1000.59Z" fill="#020C13"/>
<path d="M1003.11 1052.99L969.579 1062.33L1017.13 1021.13L1003.11 1052.99Z" fill="#020C13"/>
<rect x="1017.14" y="1021.16" width="62.8882" height="39.5963" transform="rotate(139.099 1017.14 1021.16)" fill="#020C13"/>
<path d="M895.564 978.678L929.091 969.335L881.537 1010.53L895.564 978.678Z" fill="#020C13"/>
<path d="M940.953 1031.07L907.426 1040.42L954.98 999.222L940.953 1031.07Z" fill="#020C13"/>
<rect x="954.988" y="999.252" width="62.8882" height="39.5963" transform="rotate(139.099 954.988 999.252)" fill="#020C13"/>
<path d="M832.512 957.138L866.038 947.795L818.484 988.99L832.512 957.138Z" fill="#020C13"/>
<path d="M877.9 1009.53L844.374 1018.88L891.928 977.682L877.9 1009.53Z" fill="#020C13"/>
<rect x="891.936" y="977.712" width="62.8882" height="39.5963" transform="rotate(139.099 891.936 977.712)" fill="#020C13"/>
<path d="M726.694 835.713L693.17 845.064L740.714 803.858L726.694 835.713Z" fill="#020C13"/>
<path d="M681.293 783.329L714.817 773.978L667.273 815.184L681.293 783.329Z" fill="#020C13"/>
<rect x="667.265" y="815.154" width="62.8881" height="39.5963" transform="rotate(-40.9155 667.265 815.154)" fill="#020C13"/>
<path d="M714.116 770.439L680.592 779.79L728.135 738.584L714.116 770.439Z" fill="#020C13"/>
<path d="M668.714 718.054L702.238 708.703L654.695 749.91L668.714 718.054Z" fill="#020C13"/>
<rect x="654.687" y="749.88" width="62.8881" height="39.5963" transform="rotate(-40.9155 654.687 749.88)" fill="#020C13"/>
<path d="M776.941 792.165L743.417 801.516L790.96 760.31L776.941 792.165Z" fill="#020C13"/>
<path d="M731.539 739.781L765.063 730.43L717.52 771.636L731.539 739.781Z" fill="#020C13"/>
<rect x="717.512" y="771.606" width="62.8881" height="39.5963" transform="rotate(-40.9155 717.512 771.606)" fill="#020C13"/>
<path d="M701.739 705.397L668.215 714.748L715.758 673.542L701.739 705.397Z" fill="#020C13"/>
<path d="M656.337 653.012L689.861 643.661L642.318 684.868L656.337 653.012Z" fill="#020C13"/>
<rect x="642.31" y="684.838" width="62.8881" height="39.5963" transform="rotate(-40.9155 642.31 684.838)" fill="#020C13"/>
<path d="M763.897 727.294L730.373 736.644L777.917 695.438L763.897 727.294Z" fill="#020C13"/>
<path d="M718.495 674.909L752.02 665.558L704.476 706.764L718.495 674.909Z" fill="#020C13"/>
<rect x="704.468" y="706.734" width="62.8881" height="39.5963" transform="rotate(-40.9155 704.468 706.734)" fill="#020C13"/>
<path d="M826.954 748.818L793.43 758.169L840.974 716.963L826.954 748.818Z" fill="#F6F000"/>
<path d="M781.553 696.434L815.077 687.083L767.533 728.289L781.553 696.434Z" fill="#F6F000"/>
<rect x="767.525" y="728.259" width="62.8881" height="39.5963" transform="rotate(-40.9155 767.525 728.259)" fill="#F6F000"/>
<path d="M751.148 661.352L717.624 670.703L765.167 629.497L751.148 661.352Z" fill="#020C13"/>
<path d="M705.746 608.968L739.27 599.617L691.727 640.823L705.746 608.968Z" fill="#020C13"/>
<rect x="691.719" y="640.793" width="62.8881" height="39.5963" transform="rotate(-40.9155 691.719 640.793)" fill="#020C13"/>
<path d="M738.569 596.077L705.045 605.428L752.589 564.222L738.569 596.077Z" fill="#020C13"/>
<path d="M693.168 543.693L726.692 534.342L679.148 575.548L693.168 543.693Z" fill="#020C13"/>
<rect x="679.14" y="575.518" width="62.8881" height="39.5963" transform="rotate(-40.9155 679.14 575.518)" fill="#020C13"/>
<path d="M801.394 617.804L767.87 627.154L815.414 585.948L801.394 617.804Z" fill="#020C13"/>
<path d="M755.993 565.419L789.517 556.068L741.973 597.274L755.993 565.419Z" fill="#020C13"/>
<rect x="741.965" y="597.245" width="62.8881" height="39.5963" transform="rotate(-40.9155 741.965 597.245)" fill="#020C13"/>
<path d="M726.192 531.035L692.668 540.386L740.212 499.18L726.192 531.035Z" fill="#020C13"/>
<path d="M680.791 478.651L714.315 469.3L666.771 510.506L680.791 478.651Z" fill="#020C13"/>
<rect x="666.763" y="510.476" width="62.8881" height="39.5963" transform="rotate(-40.9155 666.763 510.476)" fill="#020C13"/>
<path d="M788.35 552.932L754.826 562.283L802.37 521.077L788.35 552.932Z" fill="#020C13"/>
<path d="M742.949 500.548L776.473 491.197L728.929 532.403L742.949 500.548Z" fill="#020C13"/>
<rect x="728.921" y="532.373" width="62.8881" height="39.5963" transform="rotate(-40.9155 728.921 532.373)" fill="#020C13"/>
<path d="M851.408 574.457L817.884 583.808L865.428 542.601L851.408 574.457Z" fill="#020C13"/>
<path d="M806.006 522.072L839.531 512.721L791.987 553.927L806.006 522.072Z" fill="#020C13"/>
<rect x="791.979" y="553.898" width="62.8881" height="39.5963" transform="rotate(-40.9155 791.979 553.898)" fill="#020C13"/>
<path d="M869.275 544.284L902.802 534.941L855.248 576.136L869.275 544.284Z" fill="#020C13"/>
<path d="M914.664 596.68L881.137 606.022L928.691 564.828L914.664 596.68Z" fill="#020C13"/>
<rect x="928.699" y="564.858" width="62.8882" height="39.5963" transform="rotate(139.099 928.699 564.858)" fill="#020C13"/>
<path d="M881.838 609.562L915.364 600.219L867.81 641.413L881.838 609.562Z" fill="#020C13"/>
<path d="M927.226 661.957L893.699 671.3L941.253 630.106L927.226 661.957Z" fill="#020C13"/>
<rect x="941.261" y="630.136" width="62.8882" height="39.5963" transform="rotate(139.099 941.261 630.136)" fill="#020C13"/>
<path d="M819.018 587.82L852.544 578.477L804.99 619.672L819.018 587.82Z" fill="#020C13"/>
<path d="M864.406 640.216L830.88 649.558L878.434 608.364L864.406 640.216Z" fill="#020C13"/>
<rect x="878.442" y="608.394" width="62.8882" height="39.5963" transform="rotate(139.099 878.442 608.394)" fill="#020C13"/>
<path d="M894.198 674.607L927.725 665.264L880.171 706.458L894.198 674.607Z" fill="#020C13"/>
<path d="M939.587 727.002L906.06 736.345L953.614 695.151L939.587 727.002Z" fill="#020C13"/>
<rect x="953.622" y="695.18" width="62.8882" height="39.5963" transform="rotate(139.099 953.622 695.18)" fill="#020C13"/>
<path d="M832.046 652.695L865.572 643.352L818.018 684.546L832.046 652.695Z" fill="#020C13"/>
<path d="M877.434 705.09L843.908 714.433L891.462 673.239L877.434 705.09Z" fill="#020C13"/>
<rect x="891.47" y="673.268" width="62.8882" height="39.5963" transform="rotate(139.099 891.47 673.268)" fill="#020C13"/>
<path d="M768.993 631.155L802.52 621.812L754.966 663.006L768.993 631.155Z" fill="#020C13"/>
<path d="M814.382 683.55L780.855 692.893L828.409 651.698L814.382 683.55Z" fill="#020C13"/>
<rect x="828.417" y="651.728" width="62.8882" height="39.5963" transform="rotate(139.099 828.417 651.728)" fill="#020C13"/>
<path d="M475.536 748.341L442.012 757.692L489.556 716.486L475.536 748.341Z" fill="#020C13"/>
<path d="M430.135 695.957L463.659 686.606L416.115 727.812L430.135 695.957Z" fill="#020C13"/>
<rect x="416.107" y="727.782" width="62.8881" height="39.5963" transform="rotate(-40.9155 416.107 727.782)" fill="#020C13"/>
<path d="M462.958 683.066L429.434 692.417L476.977 651.211L462.958 683.066Z" fill="#020C13"/>
<path d="M417.556 630.682L451.08 621.331L403.537 662.537L417.556 630.682Z" fill="#020C13"/>
<rect x="403.529" y="662.507" width="62.8881" height="39.5963" transform="rotate(-40.9155 403.529 662.507)" fill="#020C13"/>
<path d="M525.783 704.792L492.259 714.143L539.802 672.937L525.783 704.792Z" fill="#020C13"/>
<path d="M480.381 652.408L513.905 643.057L466.361 684.263L480.381 652.408Z" fill="#020C13"/>
<rect x="466.354" y="684.233" width="62.8881" height="39.5963" transform="rotate(-40.9155 466.354 684.233)" fill="#020C13"/>
<path d="M450.581 618.024L417.057 627.375L464.6 586.169L450.581 618.024Z" fill="#020C13"/>
<path d="M405.179 565.64L438.703 556.289L391.16 597.495L405.179 565.64Z" fill="#020C13"/>
<rect x="391.152" y="597.465" width="62.8881" height="39.5963" transform="rotate(-40.9155 391.152 597.465)" fill="#020C13"/>
<path d="M512.739 639.921L479.215 649.272L526.758 608.066L512.739 639.921Z" fill="#020C13"/>
<path d="M467.337 587.537L500.861 578.186L453.318 619.392L467.337 587.537Z" fill="#020C13"/>
<rect x="453.31" y="619.362" width="62.8881" height="39.5963" transform="rotate(-40.9155 453.31 619.362)" fill="#020C13"/>
<path d="M575.796 661.445L542.272 670.796L589.816 629.59L575.796 661.445Z" fill="#020C13"/>
<path d="M530.395 609.061L563.919 599.71L516.375 640.916L530.395 609.061Z" fill="#020C13"/>
<rect x="516.367" y="640.886" width="62.8881" height="39.5963" transform="rotate(-40.9155 516.367 640.886)" fill="#020C13"/>
<path d="M499.99 573.98L466.466 583.331L514.009 542.124L499.99 573.98Z" fill="#020C13"/>
<path d="M454.588 521.595L488.112 512.244L440.568 553.45L454.588 521.595Z" fill="#020C13"/>
<rect x="440.561" y="553.421" width="62.8881" height="39.5963" transform="rotate(-40.9155 440.561 553.421)" fill="#020C13"/>
<path d="M487.411 508.705L453.887 518.056L501.431 476.85L487.411 508.705Z" fill="#F6F000"/>
<path d="M442.009 456.321L475.534 446.97L427.99 488.176L442.009 456.321Z" fill="#F6F000"/>
<rect x="427.982" y="488.146" width="62.8881" height="39.5963" transform="rotate(-40.9155 427.982 488.146)" fill="#F6F000"/>
<path d="M550.236 530.431L516.712 539.782L564.256 498.576L550.236 530.431Z" fill="#020C13"/>
<path d="M504.835 478.047L538.359 468.696L490.815 509.902L504.835 478.047Z" fill="#020C13"/>
<rect x="490.807" y="509.872" width="62.8881" height="39.5963" transform="rotate(-40.9155 490.807 509.872)" fill="#020C13"/>
<path d="M475.034 443.663L441.51 453.014L489.054 411.808L475.034 443.663Z" fill="#020C13"/>
<path d="M429.633 391.279L463.157 381.928L415.613 423.134L429.633 391.279Z" fill="#020C13"/>
<rect x="415.605" y="423.104" width="62.8881" height="39.5963" transform="rotate(-40.9155 415.605 423.104)" fill="#020C13"/>
<path d="M537.192 465.56L503.668 474.91L551.212 433.704L537.192 465.56Z" fill="#020C13"/>
<path d="M491.791 413.175L525.315 403.824L477.771 445.03L491.791 413.175Z" fill="#020C13"/>
<rect x="477.763" y="445.001" width="62.8881" height="39.5963" transform="rotate(-40.9155 477.763 445.001)" fill="#020C13"/>
<path d="M600.25 487.084L566.726 496.435L614.269 455.229L600.25 487.084Z" fill="#020C13"/>
<path d="M554.848 434.7L588.372 425.349L540.829 466.555L554.848 434.7Z" fill="#020C13"/>
<rect x="540.821" y="466.525" width="62.8881" height="39.5963" transform="rotate(-40.9155 540.821 466.525)" fill="#020C13"/>
<path d="M618.117 456.912L651.644 447.569L604.089 488.763L618.117 456.912Z" fill="#020C13"/>
<path d="M663.505 509.307L629.979 518.65L677.533 477.455L663.505 509.307Z" fill="#020C13"/>
<rect x="677.541" y="477.485" width="62.8882" height="39.5963" transform="rotate(139.099 677.541 477.485)" fill="#020C13"/>
<path d="M630.679 522.189L664.206 512.847L616.652 554.041L630.679 522.189Z" fill="#020C13"/>
<path d="M676.068 574.585L642.541 583.928L690.095 542.733L676.068 574.585Z" fill="#020C13"/>
<rect x="690.103" y="542.763" width="62.8882" height="39.5963" transform="rotate(139.099 690.103 542.763)" fill="#020C13"/>
<path d="M567.86 500.447L601.386 491.105L553.832 532.299L567.86 500.447Z" fill="#020C13"/>
<path d="M613.248 552.843L579.722 562.186L627.276 520.991L613.248 552.843Z" fill="#020C13"/>
<rect x="627.284" y="521.021" width="62.8882" height="39.5963" transform="rotate(139.099 627.284 521.021)" fill="#020C13"/>
<path d="M643.04 587.234L676.567 577.892L629.013 619.086L643.04 587.234Z" fill="#020C13"/>
<path d="M688.429 639.63L654.902 648.972L702.456 607.778L688.429 639.63Z" fill="#020C13"/>
<rect x="702.464" y="607.808" width="62.8882" height="39.5963" transform="rotate(139.099 702.464 607.808)" fill="#020C13"/>
<path d="M580.887 565.322L614.414 555.979L566.86 597.174L580.887 565.322Z" fill="#020C13"/>
<path d="M626.276 617.718L592.75 627.06L640.304 585.866L626.276 617.718Z" fill="#020C13"/>
<rect x="640.311" y="585.896" width="62.8882" height="39.5963" transform="rotate(139.099 640.311 585.896)" fill="#020C13"/>
<path d="M517.835 543.782L551.362 534.439L503.808 575.634L517.835 543.782Z" fill="#020C13"/>
<path d="M563.224 596.178L529.697 605.52L577.251 564.326L563.224 596.178Z" fill="#020C13"/>
<rect x="577.259" y="564.356" width="62.8882" height="39.5963" transform="rotate(139.099 577.259 564.356)" fill="#020C13"/>
<path d="M391.327 195.241L424.852 185.89L377.308 227.097L391.327 195.241Z" fill="#020C13"/>
<path d="M436.729 247.626L403.205 256.977L450.749 215.77L436.729 247.626Z" fill="#020C13"/>
<rect x="450.756" y="215.8" width="62.8881" height="39.5963" transform="rotate(139.085 450.756 215.8)" fill="#020C13"/>
<path d="M403.906 260.516L437.43 251.165L389.886 292.371L403.906 260.516Z" fill="#020C13"/>
<path d="M449.308 312.9L415.783 322.251L463.327 281.045L449.308 312.9Z" fill="#020C13"/>
<rect x="463.335" y="281.075" width="62.8881" height="39.5963" transform="rotate(139.085 463.335 281.075)" fill="#020C13"/>
<path d="M341.081 238.79L374.605 229.439L327.061 270.645L341.081 238.79Z" fill="#020C13"/>
<path d="M386.483 291.174L352.958 300.525L400.502 259.319L386.483 291.174Z" fill="#020C13"/>
<rect x="400.51" y="259.349" width="62.8881" height="39.5963" transform="rotate(139.085 400.51 259.349)" fill="#020C13"/>
<path d="M416.283 325.558L449.807 316.207L402.263 357.413L416.283 325.558Z" fill="#020C13"/>
<path d="M461.685 377.942L428.16 387.293L475.704 346.087L461.685 377.942Z" fill="#020C13"/>
<rect x="475.712" y="346.117" width="62.8881" height="39.5963" transform="rotate(139.085 475.712 346.117)" fill="#020C13"/>
<path d="M354.125 303.661L387.649 294.31L340.105 335.517L354.125 303.661Z" fill="#020C13"/>
<path d="M399.526 356.046L366.002 365.397L413.546 324.19L399.526 356.046Z" fill="#020C13"/>
<rect x="413.554" y="324.22" width="62.8881" height="39.5963" transform="rotate(139.085 413.554 324.22)" fill="#020C13"/>
<path d="M291.067 282.137L324.591 272.786L277.048 313.992L291.067 282.137Z" fill="#020C13"/>
<path d="M336.469 334.521L302.945 343.872L350.488 302.666L336.469 334.521Z" fill="#020C13"/>
<rect x="350.496" y="302.696" width="62.8881" height="39.5963" transform="rotate(139.085 350.496 302.696)" fill="#020C13"/>
<path d="M366.874 369.603L400.398 360.252L352.854 401.458L366.874 369.603Z" fill="#020C13"/>
<path d="M412.276 421.987L378.751 431.338L426.295 390.132L412.276 421.987Z" fill="#020C13"/>
<rect x="426.303" y="390.162" width="62.8881" height="39.5963" transform="rotate(139.085 426.303 390.162)" fill="#020C13"/>
<path d="M379.453 434.877L412.977 425.526L365.433 466.733L379.453 434.877Z" fill="#020C13"/>
<path d="M424.854 487.262L391.33 496.613L438.874 455.406L424.854 487.262Z" fill="#020C13"/>
<rect x="438.882" y="455.436" width="62.8881" height="39.5963" transform="rotate(139.085 438.882 455.436)" fill="#020C13"/>
<path d="M316.628 413.151L350.152 403.8L302.608 445.007L316.628 413.151Z" fill="#020C13"/>
<path d="M362.029 465.536L328.505 474.887L376.049 433.68L362.029 465.536Z" fill="#020C13"/>
<rect x="376.057" y="433.71" width="62.8881" height="39.5963" transform="rotate(139.085 376.057 433.71)" fill="#020C13"/>
<path d="M391.83 499.919L425.354 490.568L377.81 531.775L391.83 499.919Z" fill="#020C13"/>
<path d="M437.231 552.304L403.707 561.655L451.251 520.448L437.231 552.304Z" fill="#020C13"/>
<rect x="451.259" y="520.478" width="62.8881" height="39.5963" transform="rotate(139.085 451.259 520.478)" fill="#020C13"/>
<path d="M329.671 478.023L363.196 468.672L315.652 509.878L329.671 478.023Z" fill="#020C13"/>
<path d="M375.073 530.407L341.549 539.758L389.093 498.552L375.073 530.407Z" fill="#020C13"/>
<rect x="389.1" y="498.582" width="62.8881" height="39.5963" transform="rotate(139.085 389.1 498.582)" fill="#020C13"/>
<path d="M266.614 456.498L300.138 447.147L252.594 488.353L266.614 456.498Z" fill="#020C13"/>
<path d="M312.015 508.883L278.491 518.234L326.035 477.027L312.015 508.883Z" fill="#020C13"/>
<rect x="326.043" y="477.057" width="62.8881" height="39.5963" transform="rotate(139.085 326.043 477.057)" fill="#020C13"/>
<path d="M248.747 486.671L215.22 496.013L262.774 454.819L248.747 486.671Z" fill="#020C13"/>
<path d="M203.358 434.275L236.885 424.932L189.331 466.127L203.358 434.275Z" fill="#020C13"/>
<rect x="189.323" y="466.097" width="62.8881" height="39.5963" transform="rotate(-40.9012 189.323 466.097)" fill="#020C13"/>
<path d="M236.184 421.393L202.658 430.736L250.212 389.541L236.184 421.393Z" fill="#020C13"/>
<path d="M190.796 368.997L224.322 359.655L176.768 400.849L190.796 368.997Z" fill="#020C13"/>
<rect x="176.76" y="400.819" width="62.8881" height="39.5963" transform="rotate(-40.9012 176.76 400.819)" fill="#020C13"/>
<path d="M299.004 443.135L265.477 452.477L313.031 411.283L299.004 443.135Z" fill="#F6F000"/>
<path d="M253.615 390.739L287.142 381.397L239.588 422.591L253.615 390.739Z" fill="#F6F000"/>
<rect x="239.58" y="422.561" width="62.8881" height="39.5963" transform="rotate(-40.9012 239.58 422.561)" fill="#F6F000"/>
<path d="M223.824 356.348L190.297 365.691L237.851 324.496L223.824 356.348Z" fill="#020C13"/>
<path d="M178.435 303.952L211.962 294.61L164.408 335.804L178.435 303.952Z" fill="#020C13"/>
<rect x="164.4" y="335.774" width="62.8881" height="39.5963" transform="rotate(-40.9012 164.4 335.774)" fill="#020C13"/>
<path d="M285.976 378.26L252.45 387.603L300.004 346.408L285.976 378.26Z" fill="#020C13"/>
<path d="M240.588 325.864L274.114 316.522L226.56 357.716L240.588 325.864Z" fill="#020C13"/>
<rect x="226.552" y="357.686" width="62.8881" height="39.5963" transform="rotate(-40.9012 226.552 357.686)" fill="#020C13"/>
<path d="M349.028 399.8L315.502 409.143L363.056 367.948L349.028 399.8Z" fill="#020C13"/>
<path d="M303.64 347.405L337.166 338.062L289.612 379.256L303.64 347.405Z" fill="#020C13"/>
<rect x="289.605" y="379.226" width="62.8881" height="39.5963" transform="rotate(-40.9012 289.605 379.226)" fill="#020C13"/>
<path d="M273.03 8.46861L239.506 17.8195L287.05 -23.3867L273.03 8.46861Z" fill="#020C13"/>
<rect x="287.058" y="-23.3567" width="62.8881" height="39.5963" transform="rotate(139.085 287.058 -23.3567)" fill="#020C13"/>
<path d="M240.207 21.3588L273.731 12.0079L226.188 53.2141L240.207 21.3588Z" fill="#020C13"/>
<path d="M285.609 73.7432L252.084 83.0942L299.628 41.888L285.609 73.7432Z" fill="#020C13"/>
<rect x="299.636" y="41.9179" width="62.8881" height="39.5963" transform="rotate(139.085 299.636 41.9179)" fill="#020C13"/>
<path d="M177.382 -0.36717L210.906 -9.71811L163.363 31.4881L177.382 -0.36717Z" fill="#020C13"/>
<path d="M222.784 52.0172L189.26 61.3681L236.803 20.1619L222.784 52.0172Z" fill="#020C13"/>
<rect x="236.811" y="20.1918" width="62.8881" height="39.5963" transform="rotate(139.085 236.811 20.1918)" fill="#020C13"/>
<path d="M252.584 86.4009L286.108 77.0499L238.565 118.256L252.584 86.4009Z" fill="#020C13"/>
<path d="M297.986 138.785L264.462 148.136L312.005 106.93L297.986 138.785Z" fill="#020C13"/>
<rect x="312.013" y="106.96" width="62.8881" height="39.5963" transform="rotate(139.085 312.013 106.96)" fill="#020C13"/>
<path d="M190.426 64.5042L223.95 55.1532L176.406 96.3594L190.426 64.5042Z" fill="#020C13"/>
<path d="M235.828 116.889L202.303 126.239L249.847 85.0333L235.828 116.889Z" fill="#020C13"/>
<rect x="249.855" y="85.0632" width="62.8881" height="39.5963" transform="rotate(139.085 249.855 85.0632)" fill="#020C13"/>
<path d="M127.368 42.9797L160.893 33.6288L113.349 74.835L127.368 42.9797Z" fill="#020C13"/>
<path d="M172.77 95.3641L139.246 104.715L186.79 63.5088L172.77 95.3641Z" fill="#020C13"/>
<rect x="186.797" y="63.5388" width="62.8881" height="39.5963" transform="rotate(139.085 186.797 63.5388)" fill="#020C13"/>
<path d="M203.175 130.446L236.699 121.095L189.156 162.301L203.175 130.446Z" fill="#020C13"/>
<path d="M248.577 182.83L215.053 192.181L262.596 150.975L248.577 182.83Z" fill="#020C13"/>
<rect x="262.604" y="151.005" width="62.8881" height="39.5963" transform="rotate(139.085 262.604 151.005)" fill="#020C13"/>
<path d="M215.754 195.72L249.278 186.369L201.734 227.576L215.754 195.72Z" fill="#020C13"/>
<path d="M261.155 248.105L227.631 257.456L275.175 216.249L261.155 248.105Z" fill="#020C13"/>
<rect x="275.183" y="216.279" width="62.8881" height="39.5963" transform="rotate(139.085 275.183 216.279)" fill="#020C13"/>
<path d="M152.929 173.994L186.453 164.643L138.909 205.849L152.929 173.994Z" fill="#80EFF3"/>
<path d="M198.33 226.379L164.806 235.729L212.35 194.523L198.33 226.379Z" fill="#80EFF3"/>
<rect x="212.358" y="194.553" width="62.8881" height="39.5963" transform="rotate(139.085 212.358 194.553)" fill="#80EFF3"/>
<path d="M228.131 260.762L261.655 251.411L214.111 292.618L228.131 260.762Z" fill="#020C13"/>
<path d="M273.532 313.147L240.008 322.498L287.552 281.291L273.532 313.147Z" fill="#020C13"/>
<rect x="287.56" y="281.321" width="62.8881" height="39.5963" transform="rotate(139.085 287.56 281.321)" fill="#020C13"/>
<path d="M165.973 238.866L199.497 229.515L151.953 270.721L165.973 238.866Z" fill="#020C13"/>
<path d="M211.374 291.25L177.85 300.601L225.394 259.395L211.374 291.25Z" fill="#020C13"/>
<rect x="225.402" y="259.425" width="62.8881" height="39.5963" transform="rotate(139.085 225.402 259.425)" fill="#020C13"/>
<path d="M102.915 217.341L136.439 207.99L88.8954 249.196L102.915 217.341Z" fill="#020C13"/>
<path d="M148.317 269.726L114.792 279.076L162.336 237.87L148.317 269.726Z" fill="#020C13"/>
<rect x="162.344" y="237.9" width="62.8881" height="39.5963" transform="rotate(139.085 162.344 237.9)" fill="#020C13"/>
<path d="M85.0478 247.514L51.5213 256.856L99.0753 215.662L85.0478 247.514Z" fill="#020C13"/>
<path d="M39.6593 195.118L73.1858 185.775L25.6317 226.97L39.6593 195.118Z" fill="#020C13"/>
<rect x="25.6238" y="226.94" width="62.8881" height="39.5963" transform="rotate(-40.9012 25.6238 226.94)" fill="#020C13"/>
<path d="M72.4854 182.236L38.9589 191.579L86.513 150.384L72.4854 182.236Z" fill="#020C13"/>
<path d="M27.097 129.84L60.6235 120.498L13.0694 161.692L27.097 129.84Z" fill="#020C13"/>
<rect x="13.0615" y="161.662" width="62.8881" height="39.5963" transform="rotate(-40.9012 13.0615 161.662)" fill="#020C13"/>
<path d="M135.305 203.978L101.779 213.32L149.333 172.126L135.305 203.978Z" fill="#020C13"/>
<path d="M89.9165 151.582L123.443 142.239L75.8889 183.434L89.9165 151.582Z" fill="#020C13"/>
<rect x="75.881" y="183.404" width="62.8881" height="39.5963" transform="rotate(-40.9012 75.881 183.404)" fill="#020C13"/>
<path d="M60.1247 117.191L26.5982 126.534L74.1523 85.3392L60.1247 117.191Z" fill="#020C13"/>
<path d="M14.7362 64.7952L48.2627 55.4526L0.708652 96.647L14.7362 64.7952Z" fill="#020C13"/>
<rect x="0.700867" y="96.6171" width="62.8881" height="39.5963" transform="rotate(-40.9012 0.700867 96.6171)" fill="#020C13"/>
<path d="M122.277 139.103L88.7508 148.446L136.305 107.251L122.277 139.103Z" fill="#020C13"/>
<path d="M76.8888 86.7074L110.415 77.3648L62.8612 118.559L76.8888 86.7074Z" fill="#020C13"/>
<rect x="62.8535" y="118.529" width="62.8881" height="39.5963" transform="rotate(-40.9012 62.8535 118.529)" fill="#020C13"/>
<path d="M185.33 160.643L151.803 169.986L199.357 128.791L185.33 160.643Z" fill="#020C13"/>
<path d="M139.941 108.247L173.468 98.9049L125.914 140.099L139.941 108.247Z" fill="#020C13"/>
<rect x="125.906" y="140.069" width="62.8881" height="39.5963" transform="rotate(-40.9012 125.906 140.069)" fill="#020C13"/>
<path d="M523.259 398.576L489.735 407.927L537.279 366.72L523.259 398.576Z" fill="#020C13"/>
<path d="M477.858 346.191L511.382 336.84L463.838 378.047L477.858 346.191Z" fill="#020C13"/>
<rect x="463.83" y="378.017" width="62.8881" height="39.5963" transform="rotate(-40.9155 463.83 378.017)" fill="#020C13"/>
<path d="M510.681 333.301L477.157 342.652L524.701 301.446L510.681 333.301Z" fill="#020C13"/>
<path d="M465.279 280.917L498.804 271.566L451.26 312.772L465.279 280.917Z" fill="#020C13"/>
<rect x="451.252" y="312.742" width="62.8881" height="39.5963" transform="rotate(-40.9155 451.252 312.742)" fill="#020C13"/>
<path d="M573.506 355.027L539.982 364.378L587.525 323.172L573.506 355.027Z" fill="#020C13"/>
<path d="M528.104 302.643L561.628 293.292L514.085 334.498L528.104 302.643Z" fill="#020C13"/>
<rect x="514.077" y="334.468" width="62.8881" height="39.5963" transform="rotate(-40.9155 514.077 334.468)" fill="#020C13"/>
<path d="M498.304 268.259L464.78 277.61L512.324 236.404L498.304 268.259Z" fill="#020C13"/>
<path d="M452.902 215.875L486.426 206.524L438.883 247.73L452.902 215.875Z" fill="#020C13"/>
<rect x="438.875" y="247.7" width="62.8881" height="39.5963" transform="rotate(-40.9155 438.875 247.7)" fill="#020C13"/>
<path d="M560.462 290.156L526.938 299.507L574.482 258.301L560.462 290.156Z" fill="#020C13"/>
<path d="M515.06 237.771L548.585 228.421L501.041 269.627L515.06 237.771Z" fill="#020C13"/>
<rect x="501.033" y="269.597" width="62.8881" height="39.5963" transform="rotate(-40.9155 501.033 269.597)" fill="#020C13"/>
<path d="M623.52 311.68L589.995 321.031L637.539 279.825L623.52 311.68Z" fill="#020C13"/>
<path d="M578.118 259.296L611.642 249.945L564.098 291.151L578.118 259.296Z" fill="#020C13"/>
<rect x="564.091" y="291.121" width="62.8881" height="39.5963" transform="rotate(-40.9155 564.091 291.121)" fill="#020C13"/>
<path d="M547.713 224.214L514.189 233.565L561.733 192.359L547.713 224.214Z" fill="#020C13"/>
<path d="M502.311 171.83L535.835 162.479L488.292 203.685L502.311 171.83Z" fill="#020C13"/>
<rect x="488.284" y="203.655" width="62.8881" height="39.5963" transform="rotate(-40.9155 488.284 203.655)" fill="#020C13"/>
<path d="M535.134 158.94L501.61 168.291L549.154 127.084L535.134 158.94Z" fill="#020C13"/>
<path d="M489.733 106.555L523.257 97.2044L475.713 138.411L489.733 106.555Z" fill="#020C13"/>
<rect x="475.705" y="138.381" width="62.8881" height="39.5963" transform="rotate(-40.9155 475.705 138.381)" fill="#020C13"/>
<path d="M597.959 180.666L564.435 190.017L611.979 148.811L597.959 180.666Z" fill="#020C13"/>
<path d="M552.558 128.281L586.082 118.93L538.538 160.137L552.558 128.281Z" fill="#020C13"/>
<rect x="538.53" y="160.107" width="62.8881" height="39.5963" transform="rotate(-40.9155 538.53 160.107)" fill="#020C13"/>
<path d="M522.757 93.8977L489.233 103.249L536.777 62.0424L522.757 93.8977Z" fill="#020C13"/>
<path d="M477.356 41.5134L510.88 32.1624L463.336 73.3686L477.356 41.5134Z" fill="#020C13"/>
<rect x="463.328" y="73.3387" width="62.8881" height="39.5963" transform="rotate(-40.9155 463.328 73.3387)" fill="#020C13"/>
<path d="M584.915 115.794L551.391 125.145L598.935 83.9391L584.915 115.794Z" fill="#020C13"/>
<path d="M539.514 63.41L573.038 54.0591L525.494 95.2653L539.514 63.41Z" fill="#020C13"/>
<rect x="525.486" y="95.2354" width="62.8881" height="39.5963" transform="rotate(-40.9155 525.486 95.2354)" fill="#020C13"/>
<path d="M647.973 137.319L614.449 146.67L661.993 105.464L647.973 137.319Z" fill="#020C13"/>
<path d="M602.571 84.9345L636.096 75.5835L588.552 116.79L602.571 84.9345Z" fill="#020C13"/>
<rect x="588.544" y="116.76" width="62.8881" height="39.5963" transform="rotate(-40.9155 588.544 116.76)" fill="#020C13"/>
<path d="M665.84 107.146L699.367 97.8037L651.813 138.998L665.84 107.146Z" fill="#020C13"/>
<path d="M711.229 159.542L677.702 168.885L725.256 127.69L711.229 159.542Z" fill="#020C13"/>
<rect x="725.264" y="127.72" width="62.8882" height="39.5963" transform="rotate(139.099 725.264 127.72)" fill="#020C13"/>
<path d="M678.403 172.424L711.929 163.081L664.375 204.276L678.403 172.424Z" fill="#020C13"/>
<path d="M723.791 224.82L690.265 234.162L737.819 192.968L723.791 224.82Z" fill="#020C13"/>
<rect x="737.826" y="192.998" width="62.8882" height="39.5963" transform="rotate(139.099 737.826 192.998)" fill="#020C13"/>
<path d="M615.583 150.682L649.109 141.34L601.555 182.534L615.583 150.682Z" fill="#020C13"/>
<path d="M660.971 203.078L627.445 212.421L674.999 171.226L660.971 203.078Z" fill="#020C13"/>
<rect x="675.007" y="171.256" width="62.8882" height="39.5963" transform="rotate(139.099 675.007 171.256)" fill="#020C13"/>
<path d="M690.763 237.469L724.29 228.126L676.736 269.321L690.763 237.469Z" fill="#020C13"/>
<path d="M736.152 289.865L702.625 299.207L750.179 258.013L736.152 289.865Z" fill="#020C13"/>
<rect x="750.187" y="258.043" width="62.8882" height="39.5963" transform="rotate(139.099 750.187 258.043)" fill="#020C13"/>
<path d="M628.611 215.557L662.137 206.214L614.583 247.409L628.611 215.557Z" fill="#020C13"/>
<path d="M673.999 267.953L640.473 277.295L688.027 236.101L673.999 267.953Z" fill="#020C13"/>
<rect x="688.035" y="236.131" width="62.8882" height="39.5963" transform="rotate(139.099 688.035 236.131)" fill="#020C13"/>
<path d="M565.558 194.017L599.085 184.674L551.531 225.869L565.558 194.017Z" fill="#020C13"/>
<path d="M610.947 246.413L577.42 255.755L624.975 214.561L610.947 246.413Z" fill="#020C13"/>
<rect x="624.982" y="214.591" width="62.8882" height="39.5963" transform="rotate(139.099 624.982 214.591)" fill="#020C13"/>
<path d="M1107.11 566.007L1140.64 556.656L1093.09 597.862L1107.11 566.007Z" fill="#020C13"/>
<path d="M1152.51 618.391L1118.99 627.742L1166.53 586.536L1152.51 618.391Z" fill="#020C13"/>
<rect x="1166.54" y="586.566" width="62.8881" height="39.5963" transform="rotate(139.085 1166.54 586.566)" fill="#020C13"/>
<path d="M1119.69 631.281L1153.22 621.93L1105.67 663.137L1119.69 631.281Z" fill="#020C13"/>
<path d="M1165.09 683.666L1131.57 693.017L1179.11 651.81L1165.09 683.666Z" fill="#020C13"/>
<rect x="1179.12" y="651.84" width="62.8881" height="39.5963" transform="rotate(139.085 1179.12 651.84)" fill="#020C13"/>
<path d="M1056.87 609.555L1090.39 600.204L1042.85 641.41L1056.87 609.555Z" fill="#020C13"/>
<path d="M1102.27 661.94L1068.74 671.29L1116.29 630.084L1102.27 661.94Z" fill="#020C13"/>
<rect x="1116.3" y="630.114" width="62.8881" height="39.5963" transform="rotate(139.085 1116.3 630.114)" fill="#020C13"/>
<path d="M1132.07 696.323L1165.59 686.972L1118.05 728.179L1132.07 696.323Z" fill="#020C13"/>
<path d="M1177.47 748.708L1143.95 758.059L1191.49 716.852L1177.47 748.708Z" fill="#020C13"/>
<rect x="1191.5" y="716.882" width="62.8881" height="39.5963" transform="rotate(139.085 1191.5 716.882)" fill="#020C13"/>
<path d="M1069.91 674.427L1103.43 665.076L1055.89 706.282L1069.91 674.427Z" fill="#020C13"/>
<path d="M1115.31 726.811L1081.79 736.162L1129.33 694.956L1115.31 726.811Z" fill="#020C13"/>
<rect x="1129.34" y="694.986" width="62.8881" height="39.5963" transform="rotate(139.085 1129.34 694.986)" fill="#020C13"/>
<path d="M1006.85 652.902L1040.38 643.551L992.834 684.757L1006.85 652.902Z" fill="#020C13"/>
<path d="M1052.25 705.287L1018.73 714.637L1066.27 673.431L1052.25 705.287Z" fill="#020C13"/>
<rect x="1066.28" y="673.461" width="62.8881" height="39.5963" transform="rotate(139.085 1066.28 673.461)" fill="#020C13"/>
<path d="M1082.66 740.368L1116.18 731.017L1068.64 772.223L1082.66 740.368Z" fill="#020C13"/>
<path d="M1128.06 792.752L1094.54 802.103L1142.08 760.897L1128.06 792.752Z" fill="#020C13"/>
<rect x="1142.09" y="760.927" width="62.8881" height="39.5963" transform="rotate(139.085 1142.09 760.927)" fill="#020C13"/>
<path d="M1095.24 805.643L1128.76 796.292L1081.22 837.498L1095.24 805.643Z" fill="#020C13"/>
<path d="M1140.64 858.027L1107.12 867.378L1154.66 826.172L1140.64 858.027Z" fill="#020C13"/>
<rect x="1154.67" y="826.202" width="62.8881" height="39.5963" transform="rotate(139.085 1154.67 826.202)" fill="#020C13"/>
<path d="M1032.41 783.917L1065.94 774.566L1018.39 815.772L1032.41 783.917Z" fill="#020C13"/>
<path d="M1077.82 836.301L1044.29 845.652L1091.83 804.446L1077.82 836.301Z" fill="#020C13"/>
<rect x="1091.84" y="804.476" width="62.8881" height="39.5963" transform="rotate(139.085 1091.84 804.476)" fill="#020C13"/>
<path d="M1107.62 870.685L1141.14 861.334L1093.6 902.54L1107.62 870.685Z" fill="#020C13"/>
<path d="M1153.02 923.069L1119.49 932.42L1167.04 891.214L1153.02 923.069Z" fill="#020C13"/>
<rect x="1167.04" y="891.244" width="62.8881" height="39.5963" transform="rotate(139.085 1167.04 891.244)" fill="#020C13"/>
<path d="M1045.46 848.788L1078.98 839.437L1031.44 880.643L1045.46 848.788Z" fill="#020C13"/>
<path d="M1090.86 901.172L1057.33 910.523L1104.88 869.317L1090.86 901.172Z" fill="#020C13"/>
<rect x="1104.89" y="869.347" width="62.8881" height="39.5963" transform="rotate(139.085 1104.89 869.347)" fill="#020C13"/>
<path d="M982.4 827.263L1015.92 817.913L968.38 859.119L982.4 827.263Z" fill="#F29CEB"/>
<path d="M1027.8 879.648L994.277 888.999L1041.82 847.793L1027.8 879.648Z" fill="#F29CEB"/>
<rect x="1041.83" y="847.823" width="62.8881" height="39.5963" transform="rotate(139.085 1041.83 847.823)" fill="#F29CEB"/>
<path d="M964.533 857.436L931.006 866.779L978.56 825.584L964.533 857.436Z" fill="#020C13"/>
<path d="M919.144 805.04L952.671 795.698L905.117 836.892L919.144 805.04Z" fill="#020C13"/>
<rect x="905.109" y="836.862" width="62.8881" height="39.5963" transform="rotate(-40.9012 905.109 836.862)" fill="#020C13"/>
<path d="M951.97 792.158L918.444 801.501L965.998 760.307L951.97 792.158Z" fill="#020C13"/>
<path d="M906.582 739.763L940.108 730.42L892.554 771.614L906.582 739.763Z" fill="#020C13"/>
<rect x="892.546" y="771.584" width="62.8881" height="39.5963" transform="rotate(-40.9012 892.546 771.584)" fill="#020C13"/>
<path d="M1014.79 813.9L981.263 823.243L1028.82 782.048L1014.79 813.9Z" fill="#020C13"/>
<path d="M969.401 761.504L1002.93 752.162L955.374 793.356L969.401 761.504Z" fill="#020C13"/>
<rect x="955.366" y="793.326" width="62.8881" height="39.5963" transform="rotate(-40.9012 955.366 793.326)" fill="#020C13"/>
<path d="M939.609 727.113L906.083 736.456L953.637 695.262L939.609 727.113Z" fill="#020C13"/>
<path d="M894.221 674.718L927.747 665.375L880.193 706.569L894.221 674.718Z" fill="#020C13"/>
<rect x="880.186" y="706.539" width="62.8881" height="39.5963" transform="rotate(-40.9012 880.186 706.539)" fill="#020C13"/>
<path d="M1001.76 749.025L968.236 758.368L1015.79 717.174L1001.76 749.025Z" fill="#020C13"/>
<path d="M956.374 696.63L989.9 687.287L942.346 728.482L956.374 696.63Z" fill="#020C13"/>
<rect x="942.338" y="728.452" width="62.8881" height="39.5963" transform="rotate(-40.9012 942.338 728.452)" fill="#020C13"/>
<path d="M1064.81 770.565L1031.29 779.908L1078.84 738.714L1064.81 770.565Z" fill="#020C13"/>
<path d="M1019.43 718.17L1052.95 708.827L1005.4 750.022L1019.43 718.17Z" fill="#020C13"/>
<rect x="1005.39" y="749.992" width="62.8881" height="39.5963" transform="rotate(-40.9012 1005.39 749.992)" fill="#020C13"/>
</svg>
