<svg width="1456" height="4201" viewBox="0 0 1456 4201" fill="none" xmlns="http://www.w3.org/2000/svg">
<rect y="563" width="295" height="295" fill="#D9D9D9"/>
<rect y="563" width="295" height="295" fill="url(#paint0_linear_490_26)" fill-opacity="0.8"/>
<rect x="295" y="943" width="211" height="210" fill="#D9D9D9"/>
<rect x="295" y="943" width="211" height="210" fill="url(#paint1_linear_490_26)" fill-opacity="0.8"/>
<rect y="1261" width="210" height="210" fill="#D9D9D9"/>
<rect y="1261" width="210" height="210" fill="url(#paint2_linear_490_26)" fill-opacity="0.8"/>
<rect x="625" y="227" width="210" height="210" fill="#D9D9D9"/>
<rect x="625" y="227" width="210" height="210" fill="url(#paint3_linear_490_26)" fill-opacity="0.8"/>
<rect x="625" y="753" width="400" height="400" fill="#D9D9D9"/>
<rect x="625" y="753" width="400" height="400" fill="url(#paint4_linear_490_26)" fill-opacity="0.8"/>
<rect x="1182" y="1261" width="274" height="274" fill="#D9D9D9"/>
<rect x="1182" y="1261" width="274" height="274" fill="url(#paint5_linear_490_26)" fill-opacity="0.8"/>
<rect x="827" y="1261" width="198" height="198" fill="#D9D9D9"/>
<rect x="827" y="1261" width="198" height="198" fill="url(#paint6_linear_490_26)" fill-opacity="0.8"/>
<rect x="295" y="1606" width="366" height="366" fill="#D9D9D9"/>
<rect x="295" y="1606" width="366" height="366" fill="url(#paint7_linear_490_26)" fill-opacity="0.8"/>
<rect x="988" y="1759" width="244" height="243" fill="#D9D9D9"/>
<rect x="988" y="1759" width="244" height="243" fill="url(#paint8_linear_490_26)" fill-opacity="0.8"/>
<rect x="1019" width="437" height="437" fill="#D9D9D9"/>
<rect x="1019" width="437" height="437" fill="url(#paint9_linear_490_26)" fill-opacity="0.8"/>
<rect x="180" y="33" width="299" height="299" fill="#D9D9D9"/>
<rect x="180" y="33" width="299" height="299" fill="url(#paint10_linear_490_26)" fill-opacity="0.8"/>
<rect y="2762" width="295" height="295" fill="#D9D9D9"/>
<rect y="2762" width="295" height="295" fill="url(#paint11_linear_490_26)" fill-opacity="0.8"/>
<rect x="295" y="3142" width="211" height="210" fill="#D9D9D9"/>
<rect x="295" y="3142" width="211" height="210" fill="url(#paint12_linear_490_26)" fill-opacity="0.8"/>
<rect y="3460" width="210" height="210" fill="#D9D9D9"/>
<rect y="3460" width="210" height="210" fill="url(#paint13_linear_490_26)" fill-opacity="0.8"/>
<rect x="625" y="2426" width="210" height="210" fill="#D9D9D9"/>
<rect x="625" y="2426" width="210" height="210" fill="url(#paint14_linear_490_26)" fill-opacity="0.8"/>
<rect x="625" y="2952" width="400" height="400" fill="#D9D9D9"/>
<rect x="625" y="2952" width="400" height="400" fill="url(#paint15_linear_490_26)" fill-opacity="0.8"/>
<rect x="1182" y="3460" width="274" height="274" fill="#D9D9D9"/>
<rect x="1182" y="3460" width="274" height="274" fill="url(#paint16_linear_490_26)" fill-opacity="0.8"/>
<rect x="827" y="3460" width="198" height="198" fill="#D9D9D9"/>
<rect x="827" y="3460" width="198" height="198" fill="url(#paint17_linear_490_26)" fill-opacity="0.8"/>
<rect x="295" y="3805" width="366" height="366" fill="#D9D9D9"/>
<rect x="295" y="3805" width="366" height="366" fill="url(#paint18_linear_490_26)" fill-opacity="0.8"/>
<rect x="988" y="3958" width="244" height="243" fill="#D9D9D9"/>
<rect x="988" y="3958" width="244" height="243" fill="url(#paint19_linear_490_26)" fill-opacity="0.8"/>
<rect x="1019" y="2199" width="437" height="437" fill="#D9D9D9"/>
<rect x="1019" y="2199" width="437" height="437" fill="url(#paint20_linear_490_26)" fill-opacity="0.8"/>
<rect x="180" y="2232" width="299" height="299" fill="#D9D9D9"/>
<rect x="180" y="2232" width="299" height="299" fill="url(#paint21_linear_490_26)" fill-opacity="0.8"/>
<defs>
<linearGradient id="paint0_linear_490_26" x1="186.031" y1="489.558" x2="191.18" y2="751.015" gradientUnits="userSpaceOnUse">
<stop stop-color="#200AC2"/>
<stop offset="1" stop-color="#625F93"/>
</linearGradient>
<linearGradient id="paint1_linear_490_26" x1="428.06" y1="890.72" x2="431.708" y2="1076.84" gradientUnits="userSpaceOnUse">
<stop stop-color="#200AC2"/>
<stop offset="1" stop-color="#625F93"/>
</linearGradient>
<linearGradient id="paint2_linear_490_26" x1="132.429" y1="1208.72" x2="136.094" y2="1394.84" gradientUnits="userSpaceOnUse">
<stop stop-color="#200AC2"/>
<stop offset="1" stop-color="#625F93"/>
</linearGradient>
<linearGradient id="paint3_linear_490_26" x1="757.429" y1="174.72" x2="761.094" y2="360.841" gradientUnits="userSpaceOnUse">
<stop stop-color="#200AC2"/>
<stop offset="1" stop-color="#625F93"/>
</linearGradient>
<linearGradient id="paint4_linear_490_26" x1="877.246" y1="653.418" x2="884.227" y2="1007.94" gradientUnits="userSpaceOnUse">
<stop stop-color="#200AC2"/>
<stop offset="1" stop-color="#625F93"/>
</linearGradient>
<linearGradient id="paint5_linear_490_26" x1="1354.79" y1="1192.79" x2="1359.57" y2="1435.63" gradientUnits="userSpaceOnUse">
<stop stop-color="#200AC2"/>
<stop offset="1" stop-color="#625F93"/>
</linearGradient>
<linearGradient id="paint6_linear_490_26" x1="951.862" y1="1211.71" x2="955.318" y2="1387.19" gradientUnits="userSpaceOnUse">
<stop stop-color="#200AC2"/>
<stop offset="1" stop-color="#625F93"/>
</linearGradient>
<linearGradient id="paint7_linear_490_26" x1="525.805" y1="1514.88" x2="532.193" y2="1839.27" gradientUnits="userSpaceOnUse">
<stop stop-color="#200AC2"/>
<stop offset="1" stop-color="#625F93"/>
</linearGradient>
<linearGradient id="paint8_linear_490_26" x1="1141.87" y1="1698.5" x2="1146.09" y2="1913.87" gradientUnits="userSpaceOnUse">
<stop stop-color="#200AC2"/>
<stop offset="1" stop-color="#625F93"/>
</linearGradient>
<linearGradient id="paint9_linear_490_26" x1="1294.58" y1="-108.793" x2="1302.21" y2="278.517" gradientUnits="userSpaceOnUse">
<stop stop-color="#200AC2"/>
<stop offset="1" stop-color="#625F93"/>
</linearGradient>
<linearGradient id="paint10_linear_490_26" x1="368.554" y1="-41.4374" x2="373.773" y2="223.564" gradientUnits="userSpaceOnUse">
<stop stop-color="#200AC2"/>
<stop offset="1" stop-color="#625F93"/>
</linearGradient>
<linearGradient id="paint11_linear_490_26" x1="186.031" y1="2688.56" x2="191.18" y2="2950.02" gradientUnits="userSpaceOnUse">
<stop stop-color="#200AC2"/>
<stop offset="1" stop-color="#625F93"/>
</linearGradient>
<linearGradient id="paint12_linear_490_26" x1="428.06" y1="3089.72" x2="431.708" y2="3275.84" gradientUnits="userSpaceOnUse">
<stop stop-color="#200AC2"/>
<stop offset="1" stop-color="#625F93"/>
</linearGradient>
<linearGradient id="paint13_linear_490_26" x1="132.429" y1="3407.72" x2="136.094" y2="3593.84" gradientUnits="userSpaceOnUse">
<stop stop-color="#200AC2"/>
<stop offset="1" stop-color="#625F93"/>
</linearGradient>
<linearGradient id="paint14_linear_490_26" x1="757.429" y1="2373.72" x2="761.094" y2="2559.84" gradientUnits="userSpaceOnUse">
<stop stop-color="#200AC2"/>
<stop offset="1" stop-color="#625F93"/>
</linearGradient>
<linearGradient id="paint15_linear_490_26" x1="877.246" y1="2852.42" x2="884.227" y2="3206.94" gradientUnits="userSpaceOnUse">
<stop stop-color="#200AC2"/>
<stop offset="1" stop-color="#625F93"/>
</linearGradient>
<linearGradient id="paint16_linear_490_26" x1="1354.79" y1="3391.79" x2="1359.57" y2="3634.63" gradientUnits="userSpaceOnUse">
<stop stop-color="#200AC2"/>
<stop offset="1" stop-color="#625F93"/>
</linearGradient>
<linearGradient id="paint17_linear_490_26" x1="951.862" y1="3410.71" x2="955.318" y2="3586.19" gradientUnits="userSpaceOnUse">
<stop stop-color="#200AC2"/>
<stop offset="1" stop-color="#625F93"/>
</linearGradient>
<linearGradient id="paint18_linear_490_26" x1="525.805" y1="3713.88" x2="532.193" y2="4038.27" gradientUnits="userSpaceOnUse">
<stop stop-color="#200AC2"/>
<stop offset="1" stop-color="#625F93"/>
</linearGradient>
<linearGradient id="paint19_linear_490_26" x1="1141.87" y1="3897.5" x2="1146.09" y2="4112.87" gradientUnits="userSpaceOnUse">
<stop stop-color="#200AC2"/>
<stop offset="1" stop-color="#625F93"/>
</linearGradient>
<linearGradient id="paint20_linear_490_26" x1="1294.58" y1="2090.21" x2="1302.21" y2="2477.52" gradientUnits="userSpaceOnUse">
<stop stop-color="#200AC2"/>
<stop offset="1" stop-color="#625F93"/>
</linearGradient>
<linearGradient id="paint21_linear_490_26" x1="368.554" y1="2157.56" x2="373.773" y2="2422.56" gradientUnits="userSpaceOnUse">
<stop stop-color="#200AC2"/>
<stop offset="1" stop-color="#625F93"/>
</linearGradient>
</defs>
</svg>
